<?xml version="1.0" encoding="UTF-8"?>
<svg width="60px" height="40px" viewBox="0 0 60 40" version="1.1" xmlns="http://www.w3.org/2000/svg" xmlns:xlink="http://www.w3.org/1999/xlink">
    <!-- Generator: Sketch 51.3 (57544) - http://www.bohemiancoding.com/sketch -->
    <title>pmx-logo-amazon-pay</title>
    <desc>Created with Sketch.</desc>
    <defs></defs>
    <g id="pmx-logo-amazon-pay" stroke="none" stroke-width="1" fill="none" fill-rule="evenodd">
        <rect fill="#F3F6F9" x="0" y="0" width="60" height="40"></rect>
        <g id="amazon-pay-logo-svg" transform="translate(5.000000, 17.000000)">
            <path d="M3.88521739,5.54434783 C3.82055504,5.60043097 3.72762458,5.60982843 3.65304348,5.56782609 C3.32695652,5.29652174 3.26782609,5.17130435 3.09043478,4.91304348 C2.55043478,5.4626087 2.16869565,5.62695652 1.47043478,5.62695652 C0.643478261,5.62695652 1.0658141e-14,5.11652174 1.0658141e-14,4.09565217 C1.0658141e-14,3.29826087 0.434782609,2.75652174 1.04347826,2.49043478 C1.57652174,2.25652174 2.32086957,2.21391304 2.89043478,2.14956522 L2.89043478,2.0226087 C2.89043478,1.78869565 2.90869565,1.51217391 2.77130435,1.30956522 C2.65130435,1.12869565 2.42347826,1.05478261 2.22,1.05478261 C1.84521739,1.05478261 1.51130435,1.24695652 1.42956522,1.64434783 C1.41920595,1.73704778 1.34787478,1.81123219 1.25565217,1.82521739 L0.311304348,1.72173913 C0.264181621,1.71499063 0.221884921,1.68922109 0.194278159,1.65044016 C0.166671397,1.61165923 0.156167983,1.56325718 0.165217391,1.51652174 C0.383478261,0.36173913 1.42695652,0.0130434783 2.36173913,0.0130434783 C2.84,0.0130434783 3.46434783,0.14 3.84,0.50173913 C4.3173913,0.948695652 4.27478261,1.54521739 4.27478261,2.19304348 L4.27478261,3.7226087 C4.27478261,4.18347826 4.46608696,4.38521739 4.64608696,4.63304348 C4.70869565,4.72 4.7226087,4.82869565 4.64608696,4.89391304 C4.44521739,5.06173913 4.08869565,5.37130435 3.89304348,5.54608696 L3.88521739,5.54434783 Z M2.89478261,3.14956522 C2.89478261,3.53217391 2.90347826,3.85130435 2.71130435,4.19304348 C2.55478261,4.46956522 2.30695652,4.64 2.03043478,4.64 C1.65391304,4.64 1.43391304,4.35304348 1.43391304,3.92695652 C1.43391304,3.09043478 2.18434783,2.93826087 2.89478261,2.93826087 L2.89478261,3.15130435 L2.89478261,3.14956522 Z" id="Shape" fill="#232F3E"></path>
            <path d="M6.57565217,5.50608696 L5.59391304,5.50608696 C5.50284144,5.50136142 5.42891086,5.43075772 5.42,5.34 L5.42,0.296521739 C5.42330276,0.195454844 5.50671018,0.115522734 5.60782609,0.116521739 L6.52347826,0.116521739 C6.6173002,0.121697819 6.69221522,0.196612839 6.6973913,0.290434783 L6.6973913,0.948695652 L6.71565217,0.948695652 C6.95391304,0.311304348 7.40347826,0.0147826087 8.00869565,0.0147826087 C8.61391304,0.0147826087 9.00782609,0.311304348 9.28347826,0.948695652 C9.46750316,0.458176602 9.90174945,0.105020351 10.4194786,0.0248290979 C10.9372077,-0.0553621549 11.457944,0.149876506 11.7817391,0.56173913 C12.093913,0.986086957 12.0295652,1.60521739 12.0295652,2.1426087 L12.0295652,5.32434783 C12.0286534,5.37362728 12.0081375,5.42051094 11.9725591,5.45462059 C11.9369806,5.48873023 11.8892741,5.50725238 11.84,5.50608696 L10.8582609,5.50608696 C10.7616819,5.5010532 10.6855918,5.42191945 10.6843478,5.32521739 L10.6843478,2.65217391 C10.6843478,2.44 10.7026087,1.90956522 10.6565217,1.70782609 C10.5834783,1.36869565 10.3634783,1.27304348 10.0791304,1.27304348 C9.81849953,1.28100583 9.58766157,1.44344736 9.49217391,1.68608696 C9.39130435,1.94173913 9.4,2.36521739 9.4,2.65217391 L9.4,5.32434783 C9.39908612,5.37347335 9.37869018,5.42022275 9.34330097,5.45430729 C9.30791175,5.48839183 9.26042955,5.50701816 9.21130435,5.50608696 L8.22695652,5.50608696 C8.13056839,5.50063671 8.05471106,5.42174509 8.05304348,5.32521739 L8.05304348,2.65217391 C8.05304348,2.08956522 8.14,1.26086957 7.44434783,1.26086957 C6.74869565,1.26086957 6.76608696,2.06695652 6.76608696,2.65217391 L6.76608696,5.32434783 C6.76517514,5.37362728 6.74465929,5.42051094 6.70908081,5.45462059 C6.67350233,5.48873023 6.62579585,5.50725238 6.57652174,5.50608696" id="Shape" fill="#232F3E"></path>
            <path d="M17.5208696,4.62956522 C17.3408696,4.38173913 17.1495652,4.18 17.1495652,3.72 L17.1495652,2.18956522 C17.1495652,1.54086957 17.1956522,0.945217391 16.7147826,0.49826087 C16.3382609,0.136521739 15.713913,0.00956521739 15.2365217,0.00956521739 C14.3017391,0.00956521739 13.2582609,0.357391304 13.0391304,1.51304348 C13.0298223,1.56004045 13.0403142,1.60879568 13.0681301,1.64780378 C13.095946,1.68681188 13.1386219,1.71261731 13.186087,1.71913043 L14.1382609,1.82173913 C14.2303375,1.8074726 14.3015278,1.73343471 14.3121739,1.64086957 C14.3947826,1.24347826 14.7269565,1.05130435 15.1017391,1.05130435 C15.3043478,1.05130435 15.5365217,1.12608696 15.6530435,1.30695652 C15.7913043,1.50869565 15.7730435,1.78521739 15.7730435,2.01913043 L15.7730435,2.14347826 C15.2034783,2.20695652 14.4582609,2.24956522 13.926087,2.48347826 C13.3104348,2.74956522 12.8782609,3.29130435 12.8782609,4.08956522 C12.8782609,5.10956522 13.5217391,5.62 14.3486957,5.62 C15.0443478,5.62 15.4286957,5.45565217 15.9678261,4.90608696 C16.1469565,5.16695652 16.2052174,5.28956522 16.5313043,5.56086957 C16.6058173,5.60258563 16.6984133,5.5935688 16.7634783,5.53826087 C16.9591304,5.36434783 17.3156522,5.05391304 17.5165217,4.88608696 C17.6008696,4.82608696 17.5869565,4.72 17.5208696,4.62956522 Z M15.5904348,4.18869565 C15.4347826,4.46434783 15.186087,4.63478261 14.9104348,4.63478261 C14.533913,4.63478261 14.313913,4.34782609 14.313913,3.9226087 C14.313913,3.08521739 15.0643478,2.93391304 15.7747826,2.93391304 L15.7747826,3.14608696 C15.7747826,3.52956522 15.7817391,3.84782609 15.5904348,4.18869565 Z" id="Shape" fill="#232F3E"></path>
            <path d="M18.3521739,1 L18.3521739,0.279130435 C18.3498812,0.229956396 18.3685357,0.182114239 18.4035101,0.14747132 C18.4384846,0.1128284 18.4865022,0.0946303746 18.5356522,0.0973913043 L21.7643478,0.0973913043 C21.8134358,0.0957277977 21.8610717,0.114195865 21.8962102,0.148513329 C21.9313486,0.182830792 21.9509375,0.230016826 21.9504348,0.279130435 L21.9504348,0.897391304 C21.9504348,1.00086957 21.8634783,1.13652174 21.7078261,1.35043478 L20.0347826,3.73826087 C20.6556522,3.72347826 21.3121739,3.81652174 21.8765217,4.13391304 C21.980747,4.18948803 22.0471397,4.29671215 22.0504348,4.41478261 L22.0504348,5.18695652 C22.0504348,5.29304348 21.9347826,5.41565217 21.8121739,5.35217391 C20.7411728,4.80169373 19.4698994,4.80396213 18.4008696,5.35826087 C18.2886957,5.41826087 18.1713043,5.2973913 18.1713043,5.19130435 L18.1713043,4.45652174 C18.161045,4.28331571 18.2028367,4.11100083 18.2913043,3.96173913 L20.2295652,1.17913043 L18.5391304,1.17913043 C18.4898945,1.18103737 18.4420293,1.16267739 18.4066986,1.12833271 C18.371368,1.09398802 18.3516609,1.04666147 18.3521739,0.997391304" id="Shape" fill="#232F3E"></path>
            <path d="M24.7382609,1.03652174 C24.013913,1.03652174 23.9678261,2.0226087 23.9678261,2.63826087 C23.9678261,3.25391304 23.9591304,4.56869565 24.7286957,4.56869565 C25.4982609,4.56869565 25.5269565,3.50782609 25.5269565,2.86086957 C25.5269565,2.43652174 25.5086957,1.92695652 25.38,1.52434783 C25.2695652,1.17652174 25.0495652,1.03652174 24.7382609,1.03652174 Z M24.7286957,0.00695652174 C26.1869565,0.00695652174 26.9756522,1.25913043 26.9756522,2.85043478 C26.9756522,4.38869565 26.106087,5.60869565 24.7286957,5.60869565 C23.2982609,5.60869565 22.5191304,4.35652174 22.5191304,2.7973913 C22.5191304,1.23826087 23.3078261,0.00695652174 24.7286957,0.00695652174 Z" id="Shape" fill="#232F3E"></path>
            <path d="M28.8765217,5.49565217 L27.8973913,5.49565217 C27.8008123,5.49061842 27.7247222,5.41148466 27.7234783,5.31478261 L27.7234783,0.271304348 C27.7338497,0.175545623 27.8158843,0.103718132 27.9121739,0.106086957 L28.8234783,0.106086957 C28.9064726,0.108750087 28.9775519,0.166324281 28.9973913,0.246956522 L28.9973913,1.01826087 L29.0165217,1.01826087 C29.2913043,0.328695652 29.6765217,3.55271368e-15 30.3547826,3.55271368e-15 C30.7947826,3.55271368e-15 31.2243478,0.159130435 31.5017391,0.593913043 C31.7582609,0.997391304 31.7582609,1.67652174 31.7582609,2.16434783 L31.7582609,5.3373913 C31.7439016,5.42997315 31.6632331,5.49763062 31.5695652,5.49565217 L30.5817391,5.49565217 C30.4931396,5.49185937 30.4199333,5.4252416 30.4078261,5.3373913 L30.4078261,2.59913043 C30.4078261,2.04782609 30.4721739,1.24086957 29.7930435,1.24086957 C29.5408702,1.2525299 29.3186594,1.41018406 29.2243478,1.64434783 C29.0869565,1.95217391 29.0686957,2.26 29.0686957,2.60086957 L29.0686957,5.31478261 C29.0649204,5.41715334 28.9798127,5.4976188 28.8773913,5.49565217" id="Shape" fill="#232F3E"></path>
            <path d="M36.8695652,0.872173913 C36.3703105,0.876116892 35.8859068,1.04246849 35.4895652,1.34608696 L35.4895652,4.21565217 C35.9289855,4.54608696 36.382029,4.71101449 36.8486957,4.71043478 C37.795942,4.71043478 38.2695652,4.07275362 38.2695652,2.7973913 C38.2695652,1.52202899 37.8028986,0.88 36.8695652,0.871304348 L36.8695652,0.872173913 Z M35.4173913,0.73826087 C35.6641761,0.520642167 35.9461655,0.34656741 36.2513043,0.223478261 C36.539573,0.108576475 36.8470669,0.049556539 37.1573913,0.0495652174 C37.4658397,0.0438239872 37.7718171,0.105553668 38.053913,0.230434783 C38.3197425,0.352312437 38.552589,0.535965979 38.7330435,0.766086957 C38.9295323,1.02102382 39.0748133,1.31158598 39.1608696,1.62173913 C39.2651556,1.98932968 39.3155358,2.37011061 39.3104348,2.75217391 C39.315178,3.14236762 39.2612421,3.53105784 39.1504348,3.90521739 C39.0576765,4.22271501 38.9057333,4.51981548 38.7026087,4.78086957 C38.5139767,5.01821569 38.2744635,5.21018281 38.0017391,5.3426087 C37.7151634,5.47563395 37.4019636,5.54136723 37.086087,5.53478261 C36.4957313,5.54454949 35.9242946,5.32656276 35.4904348,4.92608696 L35.4904348,7.34 C35.4987269,7.39679806 35.479699,7.4541751 35.439111,7.49476314 C35.3985229,7.53535119 35.3411459,7.55437903 35.2843478,7.54608696 L34.6756522,7.54608696 C34.6188541,7.55437903 34.5614771,7.53535119 34.520889,7.49476314 C34.480301,7.4541751 34.4612731,7.39679806 34.4695652,7.34 L34.4695652,0.408695652 C34.4616533,0.351978934 34.4808057,0.294835386 34.5212988,0.254342268 C34.5617919,0.21384915 34.6189355,0.194696736 34.6756522,0.202608696 L35.1286957,0.202608696 C35.1878128,0.197078717 35.2466194,0.215969775 35.2914561,0.25489395 C35.3362928,0.293818126 35.3632575,0.349387843 35.366087,0.408695652 L35.4173913,0.73826087 Z" id="Shape" fill="#232F3E"></path>
            <path d="M41.8791304,4.78869565 C42.1218394,4.7856183 42.3621897,4.74060778 42.5895652,4.65565217 C42.8447565,4.56179385 43.0842787,4.4298661 43.3,4.26434783 L43.3,3.21304348 C43.1215502,3.17108137 42.941009,3.13857233 42.7591304,3.11565217 C42.5766228,3.09171189 42.3927664,3.07951289 42.2086957,3.07913043 C41.4318841,3.07913043 41.0437681,3.37797101 41.0443478,3.97565217 C41.0443478,4.23652174 41.1165217,4.4373913 41.2608696,4.57826087 C41.4052174,4.71913043 41.6113043,4.78927536 41.8791304,4.78869565 Z M40.673913,1.1 L40.5965217,1.12608696 C40.5685822,1.13600561 40.5392098,1.14129265 40.5095652,1.14173913 C40.4226087,1.14173913 40.3756522,1.08 40.3756522,0.955652174 L40.3756522,0.68 C40.369053,0.610369841 40.3835989,0.540367532 40.4173913,0.479130435 C40.4618507,0.429293869 40.5184775,0.391842323 40.5817391,0.370434783 C40.8432573,0.264157898 41.11603,0.188014949 41.3947826,0.143478261 C41.7141477,0.0856522567 42.0380507,0.0565504564 42.3626087,0.0565217391 C43.0147826,0.0565217391 43.4953623,0.190144928 43.8043478,0.457391304 C44.1133333,0.724637681 44.2681159,1.14 44.2686957,1.70347826 L44.2686957,5.22173913 C44.2766076,5.27845585 44.2574552,5.3355994 44.2169621,5.37609251 C44.176469,5.41658563 44.1193254,5.43573805 44.0626087,5.42782609 L43.6191304,5.42782609 C43.5628709,5.43337168 43.5068034,5.41556295 43.4640556,5.3785696 C43.4213077,5.34157626 43.3956332,5.28864675 43.3930435,5.23217391 L43.3408696,4.89217391 C43.0983169,5.1023232 42.821562,5.26937606 42.5226087,5.38608696 C42.2391256,5.49972165 41.9367121,5.55872915 41.6313043,5.56 C41.1373913,5.56 40.746087,5.42086957 40.4573913,5.1426087 C40.1686957,4.86434783 40.0237681,4.49188406 40.0226087,4.02521739 C40.0226087,3.52434783 40.2011594,3.12434783 40.5582609,2.82521739 C40.9153623,2.52608696 41.395942,2.37681159 42,2.3773913 C42.4377994,2.38412344 42.8732747,2.44249815 43.2973913,2.55130435 L43.2973913,1.87478261 C43.2973913,1.50376812 43.2150725,1.24289855 43.0504348,1.09217391 C42.8857971,0.941449275 42.5973913,0.865797101 42.1852174,0.865217391 C41.6727525,0.870058829 41.163694,0.949141563 40.673913,1.1 Z" id="Shape" fill="#232F3E"></path>
            <path d="M47.62,6.34 C47.433913,6.81362319 47.2191304,7.15362319 46.9756522,7.36 C46.7321739,7.56637681 46.4133333,7.66927536 46.0191304,7.66869565 C45.8211123,7.67133467 45.6236539,7.64705459 45.4321739,7.59652174 C45.3678145,7.58277655 45.3097605,7.5482497 45.2669565,7.49826087 C45.2278939,7.43536419 45.2099207,7.36164362 45.2156522,7.28782609 L45.2156522,7.02 C45.2156522,6.88956522 45.2669565,6.82434783 45.3704348,6.82434783 C45.4224935,6.82672043 45.4742654,6.83341006 45.5252174,6.84434783 C45.6167996,6.86017013 45.70969,6.86715874 45.8026087,6.86521739 C46.0212164,6.87900803 46.2374291,6.81321759 46.4113043,6.68 C46.5556522,6.55652174 46.686087,6.32985507 46.8026087,6 L46.9982609,5.47826087 L45.013913,0.573043478 C44.9766045,0.494946017 44.9525093,0.411200645 44.9426087,0.325217391 C44.9426087,0.243478261 44.9904348,0.20173913 45.086087,0.20173913 L45.7043478,0.20173913 C45.7835389,0.194144372 45.8630799,0.212124889 45.9313043,0.253043478 C45.9894655,0.317992316 46.0314741,0.395752951 46.053913,0.48 L47.4965217,4.47565217 L48.8878261,0.48 C48.910265,0.395752951 48.9522736,0.317992316 49.0104348,0.253043478 C49.0786593,0.212124889 49.1582002,0.194144372 49.2373913,0.20173913 L49.813913,0.20173913 C49.9104348,0.20173913 49.9582609,0.243478261 49.9582609,0.325217391 C49.9478984,0.411213251 49.9235175,0.494930611 49.886087,0.573043478 L47.62,6.34" id="Shape" fill="#232F3E"></path>
            <path d="M19.6843478,7.48347826 C17.84,8.84434783 15.1626087,9.57043478 12.8634783,9.57043478 C9.78763256,9.58611116 6.81678306,8.45266075 4.53304348,6.39217391 C4.35913043,6.23652174 4.51391304,6.02347826 4.72173913,6.14434783 C7.09391304,7.52434783 10.026087,8.35565217 13.0573913,8.35565217 C15.2422974,8.34372172 17.4033426,7.9004607 19.4165217,7.05130435 C19.7278261,6.91913043 19.9895652,7.25652174 19.6843478,7.48608696 M20.4513043,6.61043478 C20.6878261,6.91217391 20.1904348,8.1573913 19.9669565,8.71304348 C19.8991304,8.88086957 20.0443478,8.94869565 20.1965217,8.82173913 C21.1852174,7.99391304 21.4408696,6.26 21.24,6.00956522 C21.0391304,5.75913043 19.3095652,5.54695652 18.253913,6.28869565 C18.0913043,6.4026087 18.1191304,6.56 18.3,6.53826087 C18.893913,6.46695652 20.2173913,6.30782609 20.4530435,6.61043478" id="Shape" fill="#FF9900"></path>
        </g>
    </g>
</svg>