<?xml version="1.0" encoding="UTF-8"?>
<svg width="60px" height="40px" viewBox="0 0 60 40" version="1.1" xmlns="http://www.w3.org/2000/svg" xmlns:xlink="http://www.w3.org/1999/xlink">
    <!-- Generator: Sketch 51.3 (57544) - http://www.bohemiancoding.com/sketch -->
    <title>amex</title>
    <desc>Created with Sketch.</desc>
    <defs>
        <path d="M49.3069558,4.06561182 L46.184981,4.06561182 C45.8922829,4.06561182 45.6483755,4.06561182 45.5020494,4.2119532 C45.3069174,4.30951921 45.258142,4.50463596 45.258142,4.74854335 C45.2458327,4.99692905 45.4082959,5.22031518 45.6483908,5.2851335 C45.8546377,5.34507742 46.0678197,5.37787584 46.282547,5.38269951 L47.2093706,5.38269951 C47.909157,5.33557181 48.6023279,5.54352039 49.1606144,5.96806502 C49.220872,6.02365353 49.2704667,6.08978321 49.3069558,6.16319704 L49.3069558,4.06561182 Z M49.3069558,8.79737241 C48.7336368,9.48271224 47.8525245,9.83148513 46.9654632,9.72421133 L43.6483563,9.72421133 L43.6483563,8.16321626 L46.9654632,8.16321626 C47.2103889,8.19668499 47.4581243,8.12590027 47.6483947,7.96808424 C47.7791541,7.84016922 47.849984,7.66309166 47.8435115,7.48028473 C47.839849,7.29938488 47.7704968,7.12599621 47.6483947,6.99246995 C47.4747236,6.88053273 47.2689448,6.82908803 47.0630292,6.84612857 C45.4532588,6.79733793 43.4532396,6.89490394 43.4532396,4.60220197 C43.4516417,3.97980902 43.718713,3.38700303 44.1859531,2.97583127 C44.6531932,2.5646595 45.275144,2.37512515 45.8922829,2.45584138 L49.3069558,2.45584138 L49.3069558,1.04120296 L46.1361903,1.04120296 C45.3771283,1.00708407 44.6264709,1.21180686 43.9898297,1.62656847 L43.9898297,1.04120296 L39.3068598,1.04120296 C38.5788067,1.01140881 37.8604847,1.21664214 37.2580652,1.62656847 L37.2580652,1.04120296 L28.8677396,1.04120296 L28.8677396,1.62656847 C28.1705926,1.22748351 27.3781724,1.02516526 26.5750376,1.04120296 L21.0140194,1.04120296 L21.0140194,1.62656847 C20.2813631,1.18327722 19.429018,0.97871609 18.574976,1.04120296 L12.428577,1.04120296 L11.013908,2.65103448 L9.69682036,1.13881478 L0.428477011,1.13881478 L0.428477011,11.1389108 L9.50171888,11.1389108 L10.9651479,9.57791576 L12.331011,11.1389108 L17.9408046,11.1389108 L17.9408046,8.79741823 L18.4773947,8.79741823 C19.2891414,8.84885169 20.1027854,8.7326198 20.8676627,8.4559601 L20.8676627,11.1389108 L25.5018573,11.1389108 L25.5018573,8.55354138 L25.74578,8.55354138 C26.0384627,8.55354138 26.0384627,8.55354138 26.0384627,8.84622414 L26.0384627,11.1389261 L40.0385972,11.1389261 C40.863934,11.1579355 41.6771367,10.937691 42.3800745,10.50477 L42.3800745,11.1389261 L46.8191371,11.1389261 C47.684699,11.1526208 48.5451384,11.0036949 49.3557465,10.6998867 L49.3557465,8.79737241 L49.3069558,8.79737241 Z M42.4289263,5.91928966 C42.8156032,6.32355681 43.0108877,6.87391802 42.9655011,7.43149409 C42.9655011,8.99248916 41.9898869,9.67542069 40.2825504,9.67542069 L36.9165918,9.67542069 L36.9165918,8.16321626 L40.2336987,8.16321626 C40.4786243,8.19668499 40.7263598,8.12590027 40.9166302,7.96808424 C41.0473952,7.84017186 41.1182308,7.66309396 41.1117622,7.48028473 C41.1080955,7.29938288 41.0387378,7.12599396 40.9166302,6.99246995 C40.7272984,6.87477259 40.5042351,6.82329727 40.2824741,6.84612857 C38.6727036,6.79733793 36.6726997,6.89490394 36.6726997,4.60220197 C36.6622779,3.97692117 36.9267903,3.37856776 37.396262,2.96543218 C37.8657337,2.55229661 38.4928616,2.36600566 39.111743,2.45584138 L42.5263243,2.45584138 L42.5263243,3.96804581 L39.4044258,3.96804581 C39.0629524,3.96804581 38.8678356,3.96804581 38.7214943,4.11438719 C38.5263622,4.2119532 38.4775869,4.40708522 38.4775869,4.65097734 C38.4652716,4.8993648 38.6277372,5.12275422 38.8678356,5.18756749 C39.0899888,5.25096927 39.3197476,5.28379342 39.5507672,5.2851335 L40.4776519,5.2851335 C41.1816778,5.26548 41.8709021,5.48948382 42.4288499,5.91928966 L42.4289263,5.91928966 Z M26.9653627,5.48026552 C26.7073306,5.6032979 26.4207096,5.65388149 26.1361509,5.6266069 L24.0384893,5.6266069 L24.0384893,4.01683645 L26.1360745,4.01683645 C26.4207958,3.98499874 26.7086634,4.03580234 26.9652864,4.16317783 C27.2030766,4.27972222 27.3403519,4.53465862 27.3067598,4.79733399 C27.3510357,5.07463107 27.2136919,5.34931247 26.9652864,5.48026552 L26.9653627,5.48026552 Z M28.038543,6.35834433 C28.3627487,6.47498862 28.649301,6.67727977 28.8677548,6.94372512 C29.1121289,7.33674238 29.2153625,7.80126932 29.1604529,8.26079754 L29.1604529,9.67545123 L27.4530706,9.67545123 L27.4530706,8.79737241 C27.4530706,8.35834828 27.501846,7.72419212 27.1603878,7.38273399 C26.7994795,7.10552214 26.3433789,6.98272414 25.8920755,7.04126059 L24.0384893,7.04126059 L24.0384893,9.67549704 L22.3311987,9.67549704 L22.3311987,2.55340739 L26.2824465,2.55340739 C26.9832107,2.493511 27.6877798,2.61093656 28.3312411,2.89486552 C28.9101125,3.21699142 29.2518756,3.84354122 29.2093199,4.50463596 C29.250026,5.30788464 28.7812939,6.04997453 28.0384667,6.35831379 L28.038543,6.35834433 Z M30.1849036,2.55343793 L35.8922785,2.55343793 L35.8922785,4.06564236 L31.8921637,4.06564236 L31.8921637,5.38273005 L35.7946361,5.38273005 L35.7946361,6.84615911 L31.8921637,6.84615911 L31.8921637,8.26079754 L35.8922021,8.26079754 L35.8922021,9.77301724 L30.1848273,9.77301724 L30.1849036,2.55343793 Z M18.6238278,5.87054483 L16.3798248,5.87054483 L16.3798248,4.06561182 L18.6237514,4.06561182 C19.2579076,4.06561182 19.6481563,4.30951921 19.6481563,4.94369064 C19.6969622,5.52904089 19.2579076,5.87051429 18.6237514,5.87051429 L18.6238278,5.87054483 Z M14.67258,9.09008571 L12.0383435,6.16322759 L14.67258,3.33393547 L14.67258,9.09008571 Z M7.89202479,8.2120069 L3.69679327,8.2120069 L3.69679327,6.7973532 L7.4529243,6.7973532 L7.4529243,5.33393941 L3.69679327,5.33393941 L3.69679327,4.01685172 L7.98945337,4.01685172 L9.84319228,6.11448276 L7.89202479,8.2120069 Z M21.5019105,4.89491527 C21.5019105,6.89491921 20.0384814,7.28516798 18.5262617,7.28516798 L16.3798248,7.28516798 L16.3798248,9.67543596 L13.0627332,9.67543596 L10.9651479,7.28515271 L8.77001199,9.67542069 L1.98945681,9.67543596 L1.98945681,2.55340739 L8.86748637,2.55340739 L10.9650716,4.8949 L13.1602076,2.55340739 L18.623675,2.55340739 C19.9896144,2.55340739 21.5018342,2.94365616 21.5018342,4.8949 L21.5019105,4.89491527 Z" id="path-1"></path>
    </defs>
    <g id="amex" stroke="none" stroke-width="1" fill="none" fill-rule="evenodd">
        <rect fill="#006CD3" x="0" y="0" width="60" height="40"></rect>
        <g transform="translate(-1.000000, 9.000000)">
            <g id="Clipped" transform="translate(12.181117, 11.758621)">
                <mask id="mask-2" fill="white">
                    <use xlink:href="#path-1"></use>
                </mask>
                <g id="Shape"></g>
                <polygon id="Shape" fill="#FFFFFE" fill-rule="nonzero" mask="url(#mask-2)" points="-2.01058161 -1.30028966 51.7459839 -1.30028966 51.7459839 13.5778931 -2.01058161 13.5778931"></polygon>
            </g>
            <g id="Group" transform="translate(0.458128, 1.068966)">
                <polygon id="Shape" points="19.8094581 8.13635468 25.517734 8.13635468 25.517734 6.62453202 21.5167488 6.62453202 21.5167488 5.20891626 25.42 5.20891626 25.42 3.74596059 21.5167488 3.74596059 21.5167488 2.47694581 25.517734 2.47694581 25.517734 0.965123153 19.8094581 0.965123153"></polygon>
                <path d="M15.6636739,0.965489655 L13.6149099,5.84356108 L11.3709833,0.965489655 L8.59043596,0.965489655 L8.59043596,7.74602956 L5.66357783,0.965489655 L3.12696847,0.965489655 L0.0537689655,8.13635468 L1.90749261,8.13635468 L2.59037833,6.52656897 L6.15142315,6.52656897 L6.83435468,8.13635468 L10.297803,8.13635468 L10.297803,2.52645419 L12.7856217,8.13635468 L14.2978414,8.13635468 L16.7856601,2.52645419 L16.7856601,8.13635468 L18.4929507,8.13635468 L18.4929507,0.965489655 L15.6636739,0.965489655 Z M3.17577438,5.01427291 L4.34650542,2.13622069 L5.51723645,5.01427291 L3.17577438,5.01427291 Z" id="Shape"></path>
                <path d="M33.6150867,2.86788177 C33.6575847,2.21952906 33.313169,1.6072598 32.7370079,1.30691724 C32.0749734,1.0277472 31.3558497,0.910687241 30.6394532,0.965474384 L26.6881901,0.965474384 L26.6881901,8.03871232 L28.3954808,8.03871232 L28.3954808,5.45325123 L30.2491586,5.45325123 C30.8832995,5.45325123 31.273533,5.50211823 31.5174404,5.74594926 C31.8589291,6.08739212 31.8101384,6.721533 31.8101384,7.16057241 L31.8101384,8.08748768 L33.5174291,8.08748768 L33.5174291,6.67286453 C33.5723448,6.2133371 33.4691281,5.74880823 33.2247768,5.35577685 C33.0063088,5.08931296 32.7197267,4.88701935 32.3954887,4.77039606 C33.1541407,4.44685025 33.6378212,3.69233184 33.6150867,2.86788177 Z M31.3710837,3.89233251 C31.1130571,4.01538267 30.8264325,4.06597216 30.5418719,4.03868916 L28.4442562,4.03868916 L28.4442562,2.42891872 L30.5418719,2.42891872 C30.8265935,2.3970723 31.1144635,2.44787633 31.3710837,2.5752601 C31.6088971,2.69177548 31.7461919,2.94671912 31.7125877,3.20940099 C31.7366613,3.48323301 31.6046065,3.74731311 31.3710837,3.89233251 Z" id="Shape"></path>
                <path d="M49.2737365,0.965489655 L49.2737365,7.79477438 L46.3956842,1.01423448 L43.8103148,1.01423448 L41.3712562,6.67284926 L40.5907739,6.67284926 C40.163409,6.70980297 39.7397603,6.56858487 39.4200429,6.28260049 C39.0508291,5.793946 38.8769185,5.18526162 38.9322433,4.57530985 C38.8899458,3.99683409 39.06376,3.42323563 39.4200429,2.96553941 C39.7700812,2.62754463 40.2542852,2.46613204 40.7371153,2.52648473 L42.3468857,2.52648473 L42.3468857,1.01423448 L40.6883246,1.01423448 C39.7483907,0.916052113 38.8104062,1.21692187 38.1029552,1.84352266 C37.4263169,2.60435724 37.0912907,3.6093863 37.1760704,4.62403941 C37.1007264,5.62276928 37.4353759,6.60911199 38.1029094,7.35579606 C38.8102592,7.90873126 39.6942891,8.18607592 40.5907281,8.1362936 L42.5907473,8.1362936 L43.2248729,6.52650788 L46.7371882,6.52650788 L47.4201197,8.1362936 L50.932435,8.1362936 L50.932435,2.77036158 L54.2007207,8.13627833 L56.6884631,8.13627833 L56.6884631,0.965489655 L54.9323054,0.965489655 L54.9323054,5.94111182 L51.9078966,0.965489655 L49.2737365,0.965489655 Z M43.9078197,5.01427291 L45.0785966,2.13622069 L46.2493276,5.01427291 L43.9078197,5.01427291 Z" id="Shape"></path>
            </g>
            <polygon id="Shape" fill="#FFFFFE" fill-rule="nonzero" points="3.63448276 6.08394089 5.97551724 6.08394089 4.80423645 3.20536946"></polygon>
            <path d="M53.8782443,1.79050197 L53.1953128,0.619770936 L48.3172414,0.619770936 L48.3172414,1.79050197 L47.6830394,0.619770936 L41.0976468,0.619770936 C40.1040824,0.566613137 39.1134058,0.768113644 38.2195488,1.205167 L38.2195488,0.619770936 L33.6829202,0.619770936 L33.6829202,1.205167 C33.1278328,0.774383999 32.4322429,0.565697227 31.7316916,0.619770936 L15.0974123,0.619770936 L13.9754261,3.20514039 L12.8535468,0.619770936 L7.58507389,0.619770936 L7.58507389,1.79050197 L6.99973892,0.619770936 L2.51191626,0.619770936 L0.463152217,5.3515468 L0.463152217,10.619867 L3.38999507,10.619867 L4.07294187,9.01009655 L5.53637094,9.01009655 L6.17051182,10.619867 L11.975468,10.619867 L11.975468,9.40033005 L12.5120734,10.619867 L15.4876611,10.619867 L15.9754453,9.40033005 L15.9754453,10.619867 L30.3170685,10.619867 L30.3170685,7.9857069 L30.6097665,7.9857069 C30.804868,7.9857069 30.8536586,8.03457389 30.8536586,8.32714975 L30.8536586,10.619867 L38.2683394,10.619867 L38.2683394,9.98566502 C39.1085976,10.4301705 40.0499463,10.6486921 41.0000961,10.6198059 L44.1220557,10.6198059 L44.8049261,9.01009655 L46.2683552,9.01009655 L46.9024961,10.619867 L52.9025537,10.619867 L52.9025537,9.1076931 L53.8293926,10.619867 L58.6587192,10.619867 L58.6587192,0.619770936 L53.8782443,0.619770936 L53.8782443,1.79050197 Z M18.9511094,9.2053202 L17.2438187,9.2053202 L17.2438187,3.5954197 L14.7559695,9.2053202 L13.2437498,9.2053202 L10.755931,3.5954197 L10.755931,9.2053202 L7.29248276,9.2053202 L6.60955123,7.59545813 L3.0485064,7.59545813 L2.36562069,9.2053202 L0.511897044,9.2053202 L3.58509655,2.03445517 L6.12170591,2.03445517 L9.04856404,8.81499507 L9.04856404,2.03445517 L11.8291113,2.03445517 L14.0730379,6.9125266 L16.121802,2.03445517 L18.9511094,2.03445517 L18.9511094,9.2053202 Z M25.9755414,3.54670542 L21.975503,3.54670542 L21.975503,4.81492611 L25.8779906,4.81492611 L25.8779906,6.27835517 L21.975503,6.27835517 L21.975503,7.69297833 L25.9755414,7.69297833 L25.9755414,9.2053202 L20.2681818,9.2053202 L20.2681818,2.03445517 L25.9755414,2.03445517 L25.9755414,3.54670542 Z M33.682966,6.42480345 C33.9273173,6.81783483 34.0305339,7.2823637 33.9756182,7.74189113 L33.9756182,9.1564532 L32.2683276,9.1564532 L32.2683276,8.22961429 C32.2683276,7.79057488 32.3171946,7.15643399 31.9756296,6.81499113 C31.7317222,6.57109901 31.3414887,6.5222931 30.7073478,6.5222931 L28.8536394,6.5222931 L28.8536394,9.10766256 L27.1463488,9.10766256 L27.1463488,2.03445517 L31.0975966,2.03445517 C31.813993,1.97966803 32.5331168,2.09672798 33.1951512,2.37589803 C33.7713124,2.67624058 34.1157281,3.28850985 34.07323,3.93686256 C34.095962,4.76128678 33.6123106,5.51578552 32.8536931,5.83934631 C33.1779256,5.95597202 33.4645022,6.15826545 33.682966,6.42472709 L33.682966,6.42480345 Z M36.8049256,9.2053202 L35.048768,9.2053202 L35.048768,2.03445517 L36.8049256,2.03445517 L36.8049256,9.2053202 Z M55.3904793,2.03445517 L57.1466369,2.03445517 L57.1466369,9.2053202 L54.6587266,9.2053202 L51.3904409,3.83940345 L51.3904409,9.2053202 L47.8781256,9.2053202 L47.1951941,7.59553448 L43.6828788,7.59553448 L43.0488754,9.2053202 L41.0488562,9.2053202 C40.1524172,9.25510252 39.2683872,8.97775787 38.5610374,8.42482266 C37.8934881,7.67812348 37.5588375,6.69175541 37.6341985,5.69300493 C37.5494106,4.67836349 37.8844197,3.67334163 38.5610374,2.91250345 C39.268501,2.28593016 40.2064841,1.98508856 41.1464069,2.08329163 L42.8049222,2.08329163 L42.8049222,3.59551133 L41.1951975,3.59551133 C40.7123675,3.53515864 40.2281634,3.69657123 39.8781251,4.03456601 C39.5218423,4.49226223 39.348028,5.06586069 39.3903256,5.64433645 C39.3350008,6.25428822 39.5089114,6.8629726 39.8781251,7.35162709 C40.1978425,7.63761147 40.6214913,7.77882957 41.0488562,7.74187586 L41.8293384,7.74187586 L44.268397,2.08326108 L46.8537665,2.08326108 L49.7318187,8.86380099 L49.7318187,2.03445517 L52.3660246,2.03445517 L55.3904793,7.01007734 L55.3904793,2.03445517 Z" id="Shape" fill="#FFFFFE" fill-rule="nonzero"></path>
            <path d="M31.8292118,3.64422562 C31.5725916,3.51684185 31.2847216,3.46603782 31,3.49788424 L28.9023842,3.49788424 L28.9023842,5.10765468 L31,5.10765468 C31.2845606,5.13493768 31.5711851,5.08434818 31.8292118,4.96129803 C32.0627346,4.81627863 32.1947894,4.55219852 32.1707158,4.2783665 C32.20432,4.01568463 32.0670251,3.76074099 31.8292118,3.64422562 Z" id="Shape" fill="#FFFFFE" fill-rule="nonzero"></path>
            <polygon id="Shape" fill="#FFFFFE" fill-rule="nonzero" points="44.3666502 6.08394089 46.7076847 6.08394089 45.5364039 3.20536946"></polygon>
        </g>
    </g>
</svg>