<?xml version="1.0" encoding="UTF-8"?>
<svg width="60px" height="40px" viewBox="0 0 60 40" version="1.1" xmlns="http://www.w3.org/2000/svg" xmlns:xlink="http://www.w3.org/1999/xlink">
    <!-- Generator: Sketch 51.3 (57544) - http://www.bohemiancoding.com/sketch -->
    <title>applepay</title>
    <desc>Created with Sketch.</desc>
    <defs></defs>
    <g id="applepay" stroke="none" stroke-width="1" fill="none" fill-rule="evenodd">
        <rect fill="#F3F6F9" x="0" y="0" width="60" height="40"></rect>
        <g id="Apple_Pay_Payment_Mark" transform="translate(7.000000, 5.000000)" fill="#1A1919">
            <g id="Group-3">
                <path d="M45.8459434,25.8050943 C45.8459434,25.9627358 45.8462264,26.1200943 45.8448113,26.2808491 C45.8442453,26.4082075 45.8425472,26.535566 45.8388679,26.6632075 C45.8329245,26.8884906 45.8207547,27.1508491 45.7763208,27.3956604 C45.7392453,27.6067925 45.6812264,27.7842453 45.5943396,27.9546226 C45.5074528,28.125 45.3950943,28.2798113 45.2600943,28.4145283 C45.1245283,28.5503774 44.970283,28.6624528 44.7993396,28.7490566 C44.6298113,28.8359434 44.4517925,28.8939623 44.2415094,28.9316038 C43.9921698,28.9763208 43.7187736,28.9884906 43.5130189,28.9938679 C43.3833962,28.9969811 43.2546226,28.9986792 43.1230189,28.9992453 C42.9656604,29.0006604 42.8077358,29.0006604 42.6503774,29.0006604 L4.19518868,29.0006604 C4.19320755,29.0006604 4.1909434,29.0006604 4.18896226,29.0006604 C4.03358491,29.0006604 3.87764151,29.0006604 3.71943396,28.9992453 C3.59037736,28.9986792 3.46160377,28.9969811 3.33679245,28.9941509 C3.12650943,28.9884906 2.85311321,28.9763208 2.60575472,28.9318868 C2.39349057,28.8939623 2.21575472,28.8359434 2.04396226,28.7479245 C1.87443396,28.6621698 1.7204717,28.5500943 1.58462264,28.4139623 C1.44990566,28.2795283 1.33783019,28.125283 1.25122642,27.9546226 C1.16433962,27.7845283 1.10660377,27.6065094 1.06839623,27.3928302 C1.02396226,27.1488679 1.01207547,26.8870755 1.00613208,26.6634906 C1.00245283,26.535283 1.00103774,26.4070755 1.0004717,26.279717 L0.999622642,25.9038679 L0.999622642,4.10632075 L1.00018868,3.73103774 C1.00103774,3.60311321 1.00245283,3.47518868 1.00613208,3.34698113 C1.01207547,3.12311321 1.02396226,2.86132075 1.06867925,2.61537736 C1.10660377,2.40339623 1.16433962,2.22566038 1.25150943,2.05443396 C1.33754717,1.88518868 1.44962264,1.7309434 1.58518868,1.59537736 C1.72018868,1.46009434 1.87471698,1.34773585 2.04509434,1.26141509 C2.21518868,1.17481132 2.39349057,1.11650943 2.60575472,1.07830189 C2.85028302,1.03443396 3.11264151,1.02226415 3.33735849,1.01632075 C3.46528302,1.01264151 3.59349057,1.01150943 3.72056604,1.01037736 L4.19518868,1.0095283 L42.6503774,1.0095283 L43.1233019,1.01037736 C43.2517925,1.01150943 43.379717,1.01264151 43.5087736,1.01632075 C43.7329245,1.02226415 43.995,1.03443396 44.2395283,1.07830189 C44.4517925,1.11650943 44.6300943,1.17481132 44.8010377,1.26169811 C44.97,1.34773585 45.1245283,1.45981132 45.2595283,1.59481132 C45.3950943,1.73066038 45.5077358,1.8854717 45.5946226,2.05613208 C45.6812264,2.2259434 45.7392453,2.40311321 45.7768868,2.61707547 C45.8207547,2.8590566 45.8329245,3.12198113 45.8388679,3.34726415 C45.8425472,3.47490566 45.8442453,3.60198113 45.8448113,3.73245283 C45.8462264,3.88981132 45.8459434,4.04745283 45.8459434,4.20537736 L45.8459434,25.8050943 Z M46.844434,3.7245283 C46.8435849,3.58981132 46.8418868,3.45509434 46.8382075,3.32009434 C46.830283,3.02632075 46.8133019,2.73 46.7606604,2.43933962 C46.7080189,2.14415094 46.6216981,1.86962264 46.485,1.60160377 C46.3508491,1.33811321 46.1756604,1.09754717 45.9667925,0.888396226 C45.7576415,0.679528302 45.5173585,0.504622642 45.2538679,0.370471698 C44.9861321,0.234056604 44.7113208,0.14745283 44.4166981,0.0945283019 C44.1254717,0.0421698113 43.8291509,0.0249056604 43.5356604,0.0169811321 C43.4003774,0.0133018868 43.2653774,0.0118867925 43.1306604,0.010754717 C42.9704717,0.00990566038 42.810283,0.00990566038 42.6503774,0.00990566038 L4.19518868,0.00990566038 C4.035,0.00990566038 3.8745283,0.00990566038 3.71462264,0.010754717 C3.57962264,0.0118867925 3.44490566,0.0133018868 3.30990566,0.0169811321 C3.01584906,0.0249056604 2.71924528,0.0421698113 2.42886792,0.0945283019 C2.13396226,0.14745283 1.85943396,0.234056604 1.59141509,0.370471698 C1.32820755,0.504622642 1.08735849,0.679528302 0.878207547,0.888396226 C0.669339623,1.09754717 0.494150943,1.33811321 0.360283019,1.60160377 C0.223867925,1.86962264 0.137264151,2.14415094 0.0846226415,2.43933962 C0.0322641509,2.73 0.0147169811,3.02632075 0.00679245283,3.32009434 C0.00311320755,3.45509434 0.00141509434,3.58981132 0.000566037736,3.7245283 C-0.000283018868,3.88471698 6.77626358e-21,4.04490566 6.77626358e-21,4.20537736 L6.77626358e-21,25.8050943 C6.77626358e-21,25.965283 -0.000283018868,26.1249057 0.000566037736,26.2856604 C0.00141509434,26.4203774 0.00311320755,26.5553774 0.00679245283,26.6900943 C0.0147169811,26.9838679 0.0322641509,27.2799057 0.0846226415,27.570566 C0.137264151,27.8660377 0.223867925,28.140566 0.360283019,28.4083019 C0.494150943,28.6717925 0.669339623,28.9126415 0.878207547,29.1212264 C1.08735849,29.3309434 1.32820755,29.5058491 1.59141509,29.639434 C1.85943396,29.7761321 2.13396226,29.8627358 2.42886792,29.9159434 C2.71924528,29.9677358 3.01584906,29.985283 3.30990566,29.9932075 C3.44490566,29.9963208 3.57962264,29.9983019 3.71462264,29.9988679 C3.8745283,30 4.035,30 4.19518868,30 L42.6503774,30 C42.810283,30 42.9704717,30 43.1306604,29.9988679 C43.2653774,29.9983019 43.4003774,29.9963208 43.5356604,29.9932075 C43.8291509,29.985283 44.1254717,29.9677358 44.4166981,29.9159434 C44.7113208,29.8627358 44.9861321,29.7761321 45.2538679,29.639434 C45.5173585,29.5058491 45.7576415,29.3309434 45.9667925,29.1212264 C46.1756604,28.9126415 46.3508491,28.6717925 46.485,28.4083019 C46.6216981,28.140566 46.7080189,27.8660377 46.7606604,27.570566 C46.8133019,27.2799057 46.830283,26.9838679 46.8382075,26.6900943 C46.8418868,26.5553774 46.8435849,26.4203774 46.844434,26.2856604 C46.845566,26.1249057 46.845566,25.965283 46.845566,25.8050943 L46.845566,4.20537736 C46.845566,4.04490566 46.845566,3.88471698 46.844434,3.7245283 Z" id="Fill-1"></path>
            </g>
            <path d="M12.3135849,10.1334906 C12.7106604,9.63679245 12.9803774,8.96971698 12.9093396,8.28820755 C12.3277358,8.31735849 11.6184906,8.67169811 11.2078302,9.16896226 C10.8390566,9.59462264 10.5124528,10.289434 10.5976415,10.9423585 C11.250283,10.9989623 11.9023585,10.6160377 12.3135849,10.1334906" id="Fill-4"></path>
            <path d="M12.9016981,11.07 C11.9541509,11.0133962 11.1483962,11.6077358 10.6958491,11.6077358 C10.2430189,11.6077358 9.54990566,11.0983019 8.8004717,11.1121698 C7.82462264,11.1263208 6.9195283,11.6782075 6.42424528,12.555283 C5.4059434,14.310566 6.15566038,16.9140566 7.1459434,18.3433019 C7.62679245,19.050566 8.20613208,19.8291509 8.97,19.8014151 C9.69141509,19.7731132 9.97443396,19.3341509 10.8512264,19.3341509 C11.7277358,19.3341509 11.9824528,19.8014151 12.7463208,19.7872642 C13.5382075,19.7731132 14.0334906,19.079717 14.5143396,18.3718868 C15.0659434,17.565566 15.2917925,16.7872642 15.3059434,16.7442453 C15.2917925,16.7303774 13.7787736,16.1499057 13.7649057,14.4093396 C13.7504717,12.9520755 14.9527358,12.2586792 15.0093396,12.2156604 C14.3303774,11.2115094 13.2696226,11.0983019 12.9016981,11.07" id="Fill-5"></path>
            <path d="M20.0187736,14.7033962 L21.9093396,14.7033962 C23.3442453,14.7033962 24.1607547,13.9310377 24.1607547,12.5923585 C24.1607547,11.2533962 23.3442453,10.4881132 21.9166981,10.4881132 L20.0187736,10.4881132 L20.0187736,14.7033962 Z M22.3508491,9.09764151 C24.4106604,9.09764151 25.845283,10.5175472 25.845283,12.584717 C25.845283,14.6592453 24.3815094,16.0867925 22.2993396,16.0867925 L20.0187736,16.0867925 L20.0187736,19.7133962 L18.3710377,19.7133962 L18.3710377,9.09764151 L22.3508491,9.09764151 Z" id="Fill-6"></path>
            <path d="M31.2563208,16.829717 L31.2563208,16.2336792 L29.4246226,16.3514151 C28.394434,16.4176415 27.8578302,16.8 27.8578302,17.4693396 C27.8578302,18.1171698 28.4167925,18.5363208 29.2921698,18.5363208 C30.4103774,18.5363208 31.2563208,17.8225472 31.2563208,16.829717 Z M26.2539623,17.5140566 C26.2539623,16.1527358 27.2912264,15.3730189 29.2038679,15.255283 L31.2563208,15.1301887 L31.2563208,14.5417925 C31.2563208,13.6808491 30.69,13.2101887 29.6821698,13.2101887 C28.8506604,13.2101887 28.2475472,13.6366981 28.1227358,14.2916038 L26.6366038,14.2916038 C26.6807547,12.9158491 27.975283,11.9153774 29.7263208,11.9153774 C31.6095283,11.9153774 32.8381132,12.9011321 32.8381132,14.4314151 L32.8381132,19.7133962 L31.3151887,19.7133962 L31.3151887,18.4406604 L31.2783962,18.4406604 C30.8445283,19.2721698 29.8882075,19.7940566 28.8506604,19.7940566 C27.3206604,19.7940566 26.2539623,18.8821698 26.2539623,17.5140566 Z" id="Fill-7"></path>
            <path d="M34.2382075,22.5529245 L34.2382075,21.2804717 C34.3409434,21.2949057 34.5911321,21.3096226 34.7235849,21.3096226 C35.4517925,21.3096226 35.8638679,21.0008491 36.1140566,20.2061321 L36.2609434,19.7354717 L33.4729245,12.0110377 L35.1945283,12.0110377 L37.1366038,18.2787736 L37.1733962,18.2787736 L39.1154717,12.0110377 L40.7929245,12.0110377 L37.9016038,20.1251887 C37.2393396,21.9863208 36.4819811,22.5973585 34.8781132,22.5973585 C34.7530189,22.5973585 34.3485849,22.5826415 34.2382075,22.5529245" id="Fill-8"></path>
        </g>
    </g>
</svg>