<?xml version="1.0" encoding="UTF-8"?>
<svg width="60px" height="40px" viewBox="0 0 60 40" version="1.1" xmlns="http://www.w3.org/2000/svg" xmlns:xlink="http://www.w3.org/1999/xlink">
    <!-- Generator: Sketch 51.3 (57544) - http://www.bohemiancoding.com/sketch -->
    <title>boleto-bancario</title>
    <desc>Created with Sketch.</desc>
    <defs></defs>
    <g id="boleto-bancario" stroke="none" stroke-width="1" fill="none" fill-rule="evenodd">
        <rect fill="#F3F6F9" x="0" y="0" width="60" height="40"></rect>
        <g transform="translate(9.000000, 6.000000)" fill-rule="nonzero">
            <polygon id="Fill-1" fill="#1A1918" points="2.95357143 27.9264286 4.95071429 27.9264286 4.95071429 0.0564285714 2.95357143 0.0564285714"></polygon>
            <polygon id="Fill-2" fill="#1A1918" points="5.58071429 27.9264286 6.2 27.9264286 6.2 0.0564285714 5.58071429 0.0564285714"></polygon>
            <polygon id="Fill-3" fill="#1A1918" points="6.73892857 27.9264286 7.84678571 27.9264286 7.84678571 0.0564285714 6.73892857 0.0564285714"></polygon>
            <polygon id="Fill-4" fill="#1A1918" points="8.91607143 27.9264286 9.53428571 27.9264286 9.53428571 0.0564285714 8.91607143 0.0564285714"></polygon>
            <polygon id="Fill-5" fill="#1A1918" points="9.80428571 27.9264286 10.2810714 27.9264286 10.2810714 0.0564285714 9.80428571 0.0564285714"></polygon>
            <polygon id="Fill-6" fill="#1A1918" points="1.43428571 27.9264286 2.05357143 27.9264286 2.05357143 0.0564285714 1.43428571 0.0564285714"></polygon>
            <polygon id="Fill-7" fill="#1A1918" points="0.0692857143 27.9264286 1.17714286 27.9264286 1.17714286 0.0564285714 0.0692857143 0.0564285714"></polygon>
            <polygon id="Fill-8" fill="#1A1918" points="13.5896429 27.9264286 15.5867857 27.9264286 15.5867857 0.0564285714 13.5896429 0.0564285714"></polygon>
            <polygon id="Fill-9" fill="#1A1918" points="16.2167857 27.9264286 16.835 27.9264286 16.835 0.0564285714 16.2167857 0.0564285714"></polygon>
            <polygon id="Fill-10" fill="#1A1918" points="17.375 27.9264286 18.4828571 27.9264286 18.4828571 0.0564285714 17.375 0.0564285714"></polygon>
            <polygon id="Fill-11" fill="#1A1918" points="19.5510714 27.9264286 20.1703571 27.9264286 20.1703571 0.0564285714 19.5510714 0.0564285714"></polygon>
            <polygon id="Fill-12" fill="#1A1918" points="20.4392857 27.9264286 20.9171429 27.9264286 20.9171429 0.0564285714 20.4392857 0.0564285714"></polygon>
            <polygon id="Fill-13" fill="#1A1918" points="12.0703571 27.9264286 12.6896429 27.9264286 12.6896429 0.0564285714 12.0703571 0.0564285714"></polygon>
            <polygon id="Fill-14" fill="#1A1918" points="10.7053571 27.9264286 11.8132143 27.9264286 11.8132143 0.0564285714 10.7053571 0.0564285714"></polygon>
            <polygon id="Fill-15" fill="#1A1918" points="21.7014286 27.9264286 22.8092857 27.9264286 22.8092857 0.0564285714 21.7014286 0.0564285714"></polygon>
            <polygon id="Fill-16" fill="#1A1918" points="23.8775 27.9264286 24.4967857 27.9264286 24.4967857 0.0564285714 23.8775 0.0564285714"></polygon>
            <polygon id="Fill-17" fill="#1A1918" points="24.7667857 27.9264286 25.2435714 27.9264286 25.2435714 0.0564285714 24.7667857 0.0564285714"></polygon>
            <polygon id="Fill-18" fill="#1A1918" points="27.0328571 27.9264286 27.6521429 27.9264286 27.6521429 0.0564285714 27.0328571 0.0564285714"></polygon>
            <polygon id="Fill-19" fill="#1A1918" points="25.6678571 27.9264286 26.7757143 27.9264286 26.7757143 0.0564285714 25.6678571 0.0564285714"></polygon>
            <polygon id="Fill-20" fill="#1A1918" points="28.475 27.9264286 29.0942857 27.9264286 29.0942857 0.0564285714 28.475 0.0564285714"></polygon>
            <polygon id="Fill-21" fill="#1A1918" points="29.3632143 27.9264286 29.84 27.9264286 29.84 0.0564285714 29.3632143 0.0564285714"></polygon>
            <polygon id="Fill-22" fill="#1A1918" points="31.6292857 27.9264286 32.2485714 27.9264286 32.2485714 0.0564285714 31.6292857 0.0564285714"></polygon>
            <polygon id="Fill-23" fill="#1A1918" points="30.2642857 27.9264286 31.3721429 27.9264286 31.3721429 0.0564285714 30.2642857 0.0564285714"></polygon>
            <polygon id="Fill-24" fill="#1A1918" points="32.7885714 27.9264286 34.7857143 27.9264286 34.7857143 0.0564285714 32.7885714 0.0564285714"></polygon>
            <polygon id="Fill-25" fill="#1A1918" points="35.4157143 27.9264286 36.035 27.9264286 36.035 0.0564285714 35.4157143 0.0564285714"></polygon>
            <polygon id="Fill-26" fill="#1A1918" points="36.5739286 27.9264286 37.6817857 27.9264286 37.6817857 0.0564285714 36.5739286 0.0564285714"></polygon>
            <polygon id="Fill-27" fill="#1A1918" points="38.75 27.9264286 39.3692857 27.9264286 39.3692857 0.0564285714 38.75 0.0564285714"></polygon>
            <polygon id="Fill-28" fill="#1A1918" points="39.6382143 27.9264286 40.1160714 27.9264286 40.1160714 0.0564285714 39.6382143 0.0564285714"></polygon>
            <polygon id="Fill-29" fill="#1A1918" points="40.9003571 27.9264286 42.8975 27.9264286 42.8975 0.0564285714 40.9003571 0.0564285714"></polygon>
            <polygon id="Fill-30" fill="#F3F6F9" points="2.32892857 27.9714286 40.6175 27.9714286 40.6175 16.7771429 2.32892857 16.7771429"></polygon>
            <path d="M3.05083571,27.5418821 L3.05083571,17.4135714 L6.60977857,17.4135714 C7.20632147,17.389521 7.8010593,17.4940562 8.35364643,17.7200857 C8.7864831,17.9209764 9.14550985,18.2524186 9.38028929,18.66785 C9.62368568,19.0712566 9.75272387,19.5332903 9.753575,20.0044357 C9.75845865,20.9140415 9.24548099,21.7472105 8.43108929,22.1523929 C8.96275664,22.3015189 9.42865558,22.625465 9.753575,23.0719357 C10.067798,23.5201767 10.2302599,24.0572444 10.2171714,24.6044964 C10.2207282,25.0614367 10.1242617,25.5136214 9.93453929,25.9293286 C9.77913748,26.293475 9.54097653,26.6163754 9.23896786,26.8723893 C8.93053277,27.1075818 8.57750063,27.2776111 8.20132143,27.3721464 C7.70019276,27.4951636 7.18514587,27.5522174 6.66924286,27.5418607 L3.05083571,27.5418821 Z M4.30908929,21.6714286 L6.36017857,21.6714286 C6.76260061,21.6883741 7.16540677,21.6486605 7.55677143,21.5534536 C7.84830758,21.472058 8.1031339,21.2931887 8.27876429,21.0466679 C8.4485085,20.7829315 8.53332582,20.473499 8.52178571,20.1600714 C8.5288747,19.848611 8.45014519,19.5412027 8.29421429,19.2714929 C8.15211334,19.0208408 7.92142658,18.8323796 7.64746786,18.7431286 C7.17608319,18.6274403 6.69057122,18.5797897 6.20568929,18.601625 L4.30908929,18.601625 L4.30908929,21.6714286 Z M4.30908929,26.3534107 L6.67142857,26.3534107 C6.95788143,26.3613625 7.2444902,26.3448418 7.52813214,26.3040286 C7.7856118,26.2616183 8.03190823,26.167769 8.25232143,26.0280821 C8.45845181,25.8844064 8.62355177,25.6894601 8.731325,25.4624857 C8.86099596,25.1962401 8.92529633,24.9029069 8.91888929,24.6068321 C8.92773236,24.2575754 8.83241358,23.9135908 8.645075,23.6186964 C8.46814182,23.3417036 8.20168421,23.1336581 7.89005,23.0291857 C7.43998341,22.8988128 6.97191057,22.8415129 6.50368571,22.8594714 L4.30908929,22.8594714 L4.30908929,26.3534 L4.30908929,26.3534107 Z" id="Fill-31" fill="#1A1918"></path>
            <path d="M11.3564964,23.8711571 C11.264745,22.7613663 11.6510761,21.6651822 12.4183786,20.85815 C13.0059899,20.3166976 13.7811634,20.0250282 14.5799536,20.0448286 C15.4599873,20.0178234 16.3071923,20.3800478 16.8956857,21.034925 C17.5310956,21.7986827 17.8523159,22.7754777 17.7942286,23.7672929 C17.8288516,24.52868 17.6931701,25.2882005 17.3970714,25.9905071 C17.1449602,26.5164089 16.7412674,26.9548526 16.237925,27.2494357 C15.7364641,27.5471741 15.1631256,27.702102 14.5799536,27.6974536 C13.694546,27.7305719 12.8399605,27.3697309 12.2462321,26.7120607 C11.6042626,25.90996 11.2867435,24.8961143 11.3564964,23.8711143 L11.3564964,23.8711571 Z M12.5486857,23.8735143 C12.4924226,24.6206984 12.6959919,25.3643802 13.1249536,25.9787429 C13.4761998,26.4216403 14.0106611,26.6796452 14.5759326,26.6791859 C15.1412042,26.6787265 15.6752454,26.4198534 16.0257714,25.9763857 C16.4567042,25.3487615 16.6600441,24.5926403 16.6020393,23.8335286 C16.6539525,23.1015165 16.4485522,22.3743616 16.021325,21.7776929 C15.6708079,21.33607 15.1381632,21.0782265 14.5743442,21.0772358 C14.0105251,21.0762451 13.4769776,21.3322153 13.1249107,21.7726036 C12.6962443,22.3854749 12.4926548,23.127705 12.5486429,23.8735143 L12.5486857,23.8735143 Z" id="Fill-32" fill="#1A1918"></path>
            <polygon id="Fill-33" fill="#1A1918" points="19.1342857 27.5417857 20.3 27.5417857 20.3 17.4135714 19.1342857 17.4135714"></polygon>
            <path d="M26.7932429,25.1654214 L27.9986,25.3351357 C27.851508,26.0164767 27.4817799,26.6294622 26.9477321,27.0774071 C26.3860071,27.5069526 25.6916499,27.7263332 24.9851,27.6974964 C24.082445,27.7394655 23.2081526,27.3764201 22.6007321,26.7074 C21.9713171,25.9245799 21.6571275,24.9348216 21.7198036,23.9323036 C21.6548208,22.8999322 21.9714662,21.8796755 22.6095393,21.0655036 C23.1854408,20.3925191 24.0355415,20.0171175 24.9208679,20.0448286 C25.7823122,20.019903 26.6084473,20.3876062 27.1664964,21.0443321 C27.7913116,21.844637 28.1014196,22.8460475 28.0382429,23.8594036 C28.0382429,23.9322607 28.0360464,24.0432286 28.0316429,24.1894036 L22.9120357,24.1894036 C22.9072456,24.8607243 23.1332376,25.5133119 23.5521714,26.0378964 C23.9107499,26.4540422 24.4359091,26.6890492 24.9851429,26.6791464 C25.3796467,26.6898362 25.7654514,26.5621216 26.0756536,26.31815 C26.4208173,26.0109738 26.6699854,25.6107014 26.7932429,25.1653893 L26.7932429,25.1654214 Z M22.9781107,23.1707321 L26.8064643,23.1707321 C26.7957315,22.6754697 26.6432561,22.1936626 26.3671036,21.7823964 C26.0339304,21.321427 25.4961948,21.0527612 24.9275214,21.0631464 C24.4173759,21.0530573 23.9272668,21.261609 23.5808107,21.6362 C23.2022638,22.0588062 22.9883436,22.6034676 22.9781107,23.1707321 Z" id="Fill-34" fill="#1A1918"></path>
            <path d="M32.00135,26.4314536 L32.1602857,27.5301286 C31.8730048,27.598819 31.5790966,27.6360133 31.2837607,27.6410536 C30.9429064,27.660136 30.6033041,27.5858699 30.3015286,27.4262536 C30.0813071,27.2967621 29.9092858,27.0990283 29.8115214,26.8630036 C29.6882065,26.3828579 29.6405265,25.8864179 29.6702,25.3915786 L29.6702,21.1623179 L28.8090929,21.1623179 L28.8090929,20.2004429 L29.6702,20.2004429 L29.6702,18.384875 L30.8355929,17.6377893 L30.8355929,20.2004429 L32.0013071,20.2004429 L32.0013071,21.1623179 L30.8355929,21.1623179 L30.8355929,25.4625286 C30.8212132,25.6929965 30.8421332,25.9243087 30.8976286,26.1484571 C30.9365185,26.2483863 31.0060237,26.3334516 31.0961964,26.3914786 C31.2178061,26.4576574 31.3554635,26.4886062 31.4936964,26.4808464 C31.663897,26.4769789 31.8335749,26.4604692 32.0013286,26.4314536" id="Fill-35" fill="#1A1918"></path>
            <path d="M32.7145357,23.8711571 C32.6229578,22.7613887 33.0092646,21.6652735 33.7764179,20.85815 C34.3640247,20.3166972 35.1391951,20.0250276 35.9379821,20.0448286 C36.8181248,20.017821 37.6654457,20.3800363 38.2540893,21.034925 C38.8894991,21.7986827 39.2107195,22.7754777 39.1526321,23.7672929 C39.1873464,24.5287189 39.0515398,25.2882841 38.7551321,25.9905071 C38.5031328,26.5164847 38.0994129,26.9549579 37.5959857,27.2494357 C37.0945397,27.5472186 36.5211851,27.7021498 35.9380036,27.6974536 C35.0526128,27.7304971 34.198061,27.3696686 33.6042929,26.7120607 C32.9623233,25.90996 32.6448042,24.8961143 32.7145571,23.8711143 L32.7145357,23.8711571 Z M33.9067143,23.8735143 C33.8506329,24.6206824 34.0541899,25.3643054 34.4829929,25.9787429 C34.8343165,26.4216427 35.3688325,26.6796396 35.934154,26.6791803 C36.4994754,26.678721 37.0335715,26.4198558 37.384175,25.9763857 C37.8149451,25.3486865 38.0182693,24.5926236 37.9604429,23.8335286 C38.0121743,23.1015351 37.8067911,22.3744408 37.3797286,21.7776929 C37.0291344,21.3360671 36.4964347,21.0782311 35.9325654,21.0772405 C35.3686962,21.0762498 34.8350937,21.3322125 34.48295,21.7726036 C34.0544409,22.3855492 33.8508636,23.1277208 33.9066714,23.8735143 L33.9067143,23.8735143 Z" id="Fill-36" fill="#1A1918"></path>
        </g>
    </g>
</svg>