<?xml version="1.0" encoding="UTF-8"?>
<svg width="60px" height="40px" viewBox="0 0 60 40" version="1.1" xmlns="http://www.w3.org/2000/svg" xmlns:xlink="http://www.w3.org/1999/xlink">
    <!-- Generator: Sketch 51.3 (57544) - http://www.bohemiancoding.com/sketch -->
    <title>sepa-direct-debit</title>
    <desc>Created with Sketch.</desc>
    <defs></defs>
    <g id="sepa-direct-debit" stroke="none" stroke-width="1" fill="none" fill-rule="evenodd">
        <rect fill="#F3F6F9" x="0" y="0" width="60" height="40"></rect>
        <g fill-rule="nonzero" id="Group">
            <g>
                <polygon id="Fill-1" fill="#9A1B27" points="0 40 61 40 61 0 0 0"></polygon>
                <g id="Group-24" transform="translate(5.925926, 7.407407)">
                    <path d="M8.75354074,10.9858667 C7.89103549,10.6808706 6.99240639,10.4897697 6.08042963,10.4174074 C5.55474353,10.3826095 5.03642084,10.275092 4.54026667,10.0979259 C4.32598783,10.0125096 4.18561598,9.80488259 4.18619259,9.57420741 C4.18795701,9.36337834 4.29184657,9.16649513 4.46488889,9.04604444 C4.73024589,8.87951576 5.04234224,8.80326769 5.35459259,8.82868148 C5.71763888,8.81792112 6.07547535,8.91702581 6.38125926,9.11302222 C6.60241272,9.27653752 6.75908244,9.51255937 6.8238963,9.77985185 L10.2405037,9.44188148 C10.0483262,8.89688379 9.74548717,8.39753235 9.35102222,7.97521481 C8.97729048,7.60366928 8.5184791,7.32901205 8.01445926,7.17511111 C7.20342818,6.97098579 6.36732854,6.88414745 5.53165926,6.91724444 C4.6723291,6.88879581 3.81414661,7.0013998 2.99124444,7.25057778 C2.40980919,7.43826909 1.8939171,7.78780041 1.50402963,8.25820741 C1.14190428,8.71464555 0.95090252,9.28340553 0.964133333,9.8658963 C0.957273413,10.4136291 1.13330873,10.9480016 1.46437037,11.3844148 C1.7751014,11.8112856 2.20219584,12.139635 2.69459259,12.3302074 C3.54510608,12.6051703 4.41709322,12.8086376 5.30146667,12.9384889 C5.82968874,13.0068508 6.34901973,13.131862 6.85048889,13.311363 C7.0949352,13.4128813 7.25518408,13.6505086 7.25768889,13.9151852 C7.25719068,14.1471165 7.14089764,14.3634776 6.94773333,14.4918519 C6.61827235,14.7181044 6.22253828,14.8275212 5.82364444,14.8026519 C5.44977476,14.821376 5.07913621,14.7251723 4.76157037,14.5269778 C4.46255082,14.2957944 4.24540316,13.9749479 4.14192593,13.6114222 L0.565792593,13.9492 C0.738830285,14.8060793 1.24299481,15.5600688 1.96875556,16.047363 C3.09901137,16.6306109 4.36985063,16.8861601 5.6377037,16.7851407 C6.6188963,16.824894 7.59821564,16.669408 8.51884444,16.3277037 C9.14796977,16.0843254 9.68820967,15.6553845 10.0678667,15.0978074 C10.3820921,14.6266715 10.5527968,14.0744506 10.5592593,13.5081778 C10.5617398,12.977594 10.3993213,12.4593446 10.0944593,12.0250815 C9.75892444,11.5548132 9.29265462,11.1934531 8.75354074,10.9858667 Z" id="Fill-2" fill="#FEFEFE"></path>
                    <path d="M30.7053481,13.5623704 C30.4560035,13.8923111 30.0654643,14.0850899 29.6519111,14.0823704 C29.1946137,14.0919091 28.757957,13.8922584 28.4660148,13.5401481 C28.1163557,13.0597744 27.9499332,12.470231 27.9967852,11.8779259 C27.9424347,11.2556486 28.1050894,10.6337354 28.4571407,10.1177481 C28.7364276,9.76902453 29.1611072,9.56882282 29.607837,9.57528889 C30.0323004,9.57502816 30.4322059,9.77427861 30.6876296,10.1132889 C31.0222318,10.6082224 31.1783437,11.2023338 31.1302667,11.7978222 C31.1866466,12.4167607 31.0372906,13.0370134 30.7053481,13.5624444 M30.7851852,6.91725926 C30.1783155,6.90991143 29.5791298,7.05347165 29.0414815,7.33503704 C28.5395702,7.64402616 28.1034042,8.04881013 27.7578667,8.5262963 L27.7578667,7.13063704 L24.3855704,7.13063704 L24.3855704,20.6553185 L28.0234963,20.6553185 L28.0234963,15.6558519 C28.3691137,16.0194336 28.7866452,16.307073 29.2495111,16.5004593 C29.7317081,16.694763 30.2476802,16.7914112 30.7675111,16.7848 C31.8512688,16.811462 32.891351,16.3575429 33.6087704,15.5448 C34.4215139,14.5296932 34.8227751,13.246056 34.7328741,11.9487852 C34.7767543,10.6756527 34.4157739,9.42139927 33.701837,8.36637037 C33.0430058,7.41448731 31.9417525,6.86733997 30.7851852,6.91725926" id="Fill-4" fill="#FEFEFE"></path>
                    <path d="M42.867363,12.668963 C42.8824602,13.0468563 42.8081546,13.422978 42.6504889,13.7667407 C42.4815442,14.072551 42.2259515,14.3215823 41.9158519,14.4825185 C41.574875,14.6769459 41.1886849,14.7780898 40.7961778,14.775763 C40.4817467,14.7985899 40.1702977,14.7017989 39.9241926,14.5047704 C39.7343015,14.3283941 39.6267781,14.0806734 39.6276222,13.8215083 C39.6284663,13.5623432 39.737601,13.3153282 39.928637,13.1401926 C40.3455808,12.8510691 40.8193436,12.6541035 41.3183704,12.5624148 C41.8552296,12.4261185 42.3715654,12.2690321 42.8673778,12.0911556 L42.867363,12.668963 Z M46.4742815,15.607037 C46.4102197,15.2626685 46.3820837,14.9125795 46.3903259,14.5624 L46.3903259,10.3932593 C46.3839648,9.91462904 46.2940714,9.4407861 46.1246963,8.99308148 C45.9836529,8.55946183 45.7337681,8.16925584 45.3989185,7.85974815 C44.933238,7.46076334 44.366625,7.19780648 43.7612889,7.09974815 C42.9009107,6.96275166 42.030141,6.90177547 41.1590667,6.91752593 C40.5303282,6.91393084 39.902448,6.96448799 39.2823852,7.06863704 C38.8078794,7.13582141 38.3475122,7.27996641 37.9194222,7.49539259 C37.5030873,7.71223291 37.1413838,8.02071873 36.8615556,8.39761481 C36.5812605,8.83117014 36.3901903,9.31624403 36.2995111,9.82448889 L39.7427111,10.1889333 C39.83124,9.85645136 40.0273029,9.56260977 40.3003259,9.35322963 C40.7079351,9.13709944 41.1676422,9.03864757 41.6280148,9.06888889 C41.9716999,9.03317349 42.3162162,9.12834727 42.5928296,9.33542222 C42.8039895,9.59807757 42.9026661,9.93360355 42.8673185,10.2687556 C42.4507163,10.4357751 42.0252326,10.5797264 41.5928,10.6999556 C41.191437,10.8095852 40.3150914,11.0006963 38.963763,11.2732889 C38.1036336,11.3724403 37.2944063,11.7322939 36.6446667,12.304563 C36.2162647,12.7919633 35.9912908,13.4252089 36.016163,14.0736444 C36.0053754,14.8143638 36.3249841,15.5214191 36.8881481,16.0026963 C37.6126319,16.5716678 38.5229894,16.8505448 39.4418519,16.7849926 C40.2007736,16.8002797 40.9553939,16.6674303 41.6634667,16.3938815 C42.18894,16.1575865 42.6661189,15.8260375 43.0708741,15.416 C43.0972817,15.6188077 43.138674,15.819381 43.1947111,16.0160741 C43.2666056,16.2087695 43.3554991,16.3946874 43.4603407,16.5716296 L46.8415111,16.5716296 C46.6840421,16.2645744 46.5608604,15.9411144 46.4741926,15.6070963 L46.4742815,15.607037 Z" id="Fill-6" fill="#FEFEFE"></path>
                    <polygon id="Fill-8" fill="#FEFEFE" points="11.0844444 3.4162963 11.0844444 7.05777778 11.0844444 20.2874074 23.4518519 22.4755556 23.4518519 20.2874074 23.4518519 7.05777778 23.4518519 1.22814815"></polygon>
                    <path d="M29.7235259,19.8281481 C29.7118041,19.9825666 29.754915,20.1361723 29.8452741,20.2619407 C29.9139405,20.35148 30.0199971,20.4044318 30.1328296,20.4055111 C30.2435813,20.4058743 30.3483391,20.355252 30.4168741,20.2682519 C30.5039697,20.1467943 30.5453532,19.9984707 30.5337185,19.8494667 C30.5467595,19.6886426 30.5047367,19.528163 30.4145481,19.3943704 C30.3451598,19.302493 30.2365271,19.2486927 30.1213926,19.2491852 C30.010045,19.2482725 29.9048146,19.3000309 29.8375704,19.3887852 C29.7510661,19.5181867 29.7108638,19.6730387 29.7234963,19.8281778 L29.7235259,19.8281481 Z M30.5292889,20.5821185 L30.5292889,20.3914667 C30.4407781,20.5376309 30.2795008,20.6237784 30.1088,20.6160741 C29.9910958,20.6166976 29.8759069,20.5820253 29.7781037,20.5165333 C29.6755226,20.4477864 29.5945058,20.3513963 29.5444296,20.2385185 C29.4871011,20.1094456 29.4588346,19.9693522 29.4616296,19.8281481 C29.4597048,19.6877953 29.4851311,19.5484109 29.5364889,19.4177778 C29.6245452,19.1854042 29.8489143,19.0332469 30.0973778,19.0374074 C30.2613154,19.0344596 30.4163041,19.1119844 30.5122667,19.2449333 L30.5122667,18.4967852 L30.7657778,18.4967852 L30.7657778,20.5822222 L30.5292889,20.5821185 Z" id="Fill-10" fill="#FEFEFE"></path>
                    <path d="M31.458,20.5822222 L31.7628593,20.5822222 L31.7628593,19.0716444 L31.458,19.0716444 L31.458,20.5822222 Z M31.458,18.791363 L31.7628593,18.791363 L31.7628593,18.4969481 L31.458,18.4969481 L31.458,18.791363 Z" id="Fill-12" fill="#FEFEFE"></path>
                    <path d="M32.3883704,20.5820741 L32.3883704,19.0715704 L32.6178519,19.0715704 L32.6178519,19.3006519 C32.6559374,19.2191173 32.7112354,19.1468018 32.7799407,19.0886815 C32.8277884,19.0550258 32.8849242,19.0370955 32.9434222,19.0373778 C33.0368109,19.0396825 33.1276603,19.0682559 33.2055556,19.1198222 L33.1176296,19.3573333 C33.061527,19.322311 32.9969564,19.3032045 32.9308296,19.3020593 C32.8765509,19.3016417 32.8236885,19.3193702 32.780637,19.3524296 C32.7350255,19.3879504 32.7018046,19.4369756 32.6857185,19.4925037 C32.6566123,19.5894252 32.642303,19.6901849 32.6432741,19.7913778 L32.6432741,20.5821037 L32.3883704,20.5820741 Z" id="Fill-14" fill="#FEFEFE"></path>
                    <path d="M33.8396741,19.6817185 L34.6794815,19.6817185 C34.6767835,19.5789094 34.643232,19.4792873 34.5831852,19.3957926 C34.507072,19.2995591 34.3900756,19.2447991 34.2674222,19.248 C34.1570035,19.2453296 34.0503067,19.2879869 33.972163,19.3660444 C33.8896376,19.4507291 33.8423013,19.5635612 33.8397037,19.6817778 M34.6767407,20.0956593 L34.9400444,20.1284444 C34.9063175,20.271109 34.8249578,20.3980111 34.7093926,20.4882074 C34.4114879,20.6841098 34.0186066,20.6527574 33.7555407,20.4120889 C33.6186059,20.253962 33.5491864,20.0484164 33.5622074,19.8396444 C33.5487184,19.6246212 33.6187214,19.4126858 33.7576296,19.248 C33.888041,19.1075148 34.0730863,19.0306667 34.2646519,19.037437 C34.4511028,19.0313064 34.6309888,19.1066343 34.757437,19.2437926 C34.8934274,19.4053865 34.9619158,19.6131703 34.9486667,19.8239556 L34.9472741,19.8923407 L33.8254963,19.8923407 C33.8250073,20.0320659 33.8747516,20.1673131 33.9656593,20.2734222 C34.0468102,20.3604498 34.1613081,20.4086137 34.2802667,20.405763 C34.3660229,20.4081871 34.4501672,20.3821395 34.5195556,20.3316889 C34.5940585,20.2701905 34.6487404,20.1880593 34.6767407,20.0956" id="Fill-15" fill="#FEFEFE"></path>
                    <path d="M36.5318519,20.0288 L36.782563,20.0615852 C36.7639003,20.2182947 36.6891796,20.3629635 36.5721926,20.4688889 C36.4568987,20.5681315 36.3086662,20.6206829 36.1566074,20.6162222 C35.9695291,20.6240113 35.78831,20.5500638 35.6600889,20.4136148 C35.5256074,20.2510337 35.4585118,20.0431149 35.4725926,19.8325926 C35.4693983,19.685817 35.4968782,19.5399907 35.5532741,19.4044444 C35.6020622,19.2878282 35.688529,19.1909293 35.7988593,19.1292296 C35.9086329,19.0681139 36.0323634,19.0364693 36.158,19.0373778 C36.3019545,19.0312709 36.4435667,19.0753123 36.5586667,19.1619852 C36.6663484,19.2513253 36.7374724,19.3770985 36.7585333,19.5154222 L36.5106222,19.553837 C36.4946866,19.4659173 36.4506611,19.3855392 36.3851556,19.3247704 C36.3246391,19.2732695 36.2472459,19.245912 36.1678074,19.2479407 C36.0478264,19.2441825 35.9326519,19.2952112 35.8548296,19.3866074 C35.7640372,19.5140618 35.7213956,19.6695886 35.7344889,19.8255259 C35.7211733,19.981904 35.7621899,20.1380904 35.8506222,20.2677481 C35.9247951,20.3582968 36.0368118,20.4092668 36.1538074,20.4057037 C36.2461057,20.4085826 36.3359132,20.3754951 36.4042815,20.3134222 C36.4787134,20.236358 36.5238431,20.1356848 36.5318519,20.0288444" id="Fill-16" fill="#FEFEFE"></path>
                    <path d="M37.8471259,20.3530815 L37.8839704,20.5793333 C37.8207102,20.5934218 37.7561798,20.6010314 37.6913778,20.6020444 C37.6170117,20.6060478 37.5428703,20.5908011 37.4761185,20.5577778 C37.4284385,20.5321354 37.3905651,20.49146 37.3683852,20.4420741 C37.3415283,20.343668 37.3310476,20.2415132 37.337363,20.1397037 L37.337363,19.2707407 L37.1503259,19.2707407 L37.1503259,19.0716444 L37.337363,19.0716444 L37.337363,18.697363 L37.5908741,18.5439407 L37.5908741,19.0716444 L37.8471704,19.0716444 L37.8471704,19.2707407 L37.5908741,19.2707407 L37.5908741,20.1539852 C37.5878123,20.2013205 37.5923792,20.2488402 37.6044,20.2947259 C37.613249,20.3156465 37.6286265,20.3331443 37.648237,20.3446074 C37.6750884,20.3583587 37.7051061,20.3647436 37.7352296,20.3631111 C37.7727257,20.3622562 37.8101226,20.3588956 37.8471704,20.3530519" id="Fill-17" fill="#FEFEFE"></path>
                    <path d="M39.5073185,19.8281481 C39.4955988,19.9825641 39.5387039,20.1361675 39.6290519,20.2619407 C39.6977211,20.3514765 39.8037759,20.4044274 39.9166074,20.4055111 C40.0273623,20.40587 40.1321228,20.355249 40.2006667,20.2682519 C40.2877623,20.1467943 40.3291458,19.9984707 40.3175111,19.8494667 C40.3305521,19.6886426 40.2885293,19.528163 40.1983407,19.3943704 C40.1289509,19.3024949 40.0203191,19.248695 39.9051852,19.2491852 C39.7938371,19.2482701 39.6886056,19.300029 39.621363,19.3887852 C39.5348587,19.5181867 39.4946564,19.6730387 39.5072889,19.8281778 L39.5073185,19.8281481 Z M40.3130815,20.5821185 L40.3130815,20.3914667 C40.2245661,20.537626 40.063292,20.6237718 39.8925926,20.6160741 C39.7748878,20.6167021 39.6596975,20.5820295 39.5618963,20.5165333 C39.4593146,20.447783 39.3782939,20.3513943 39.3282074,20.2385185 C39.270884,20.1094444 39.2426226,19.9693511 39.2454222,19.8281481 C39.2434974,19.6877953 39.2689237,19.5484109 39.3202815,19.4177778 C39.408336,19.1854093 39.6326974,19.0332532 39.8811556,19.0374074 C40.0450967,19.0344624 40.2000886,19.111986 40.2960593,19.2449333 L40.2960593,18.4967852 L40.5496296,18.4967852 L40.5496296,20.5822222 L40.3130815,20.5821185 Z" id="Fill-18" fill="#FEFEFE"></path>
                    <path d="M41.4330519,19.6817185 L42.2728593,19.6817185 C42.2701612,19.5789094 42.2366098,19.4792873 42.176563,19.3957926 C42.1004498,19.2995591 41.9834534,19.2447991 41.8608,19.248 C41.7503813,19.2453296 41.6436845,19.2879869 41.5655407,19.3660444 C41.4830154,19.4507291 41.4356791,19.5635612 41.4330815,19.6817778 M42.2701185,20.0956593 L42.5334222,20.1284444 C42.4997019,20.2711118 42.4183409,20.398016 42.3027704,20.4882074 C42.0048657,20.6841098 41.6119843,20.6527574 41.3489185,20.4120889 C41.2119837,20.253962 41.1425641,20.0484164 41.1555852,19.8396444 C41.1420941,19.6246185 41.2121032,19.4126806 41.3510222,19.248 C41.481429,19.1075171 41.6664688,19.0306691 41.8580296,19.037437 C42.0444828,19.0312945 42.2243735,19.1066244 42.3508148,19.2437926 C42.4868052,19.4053865 42.5552936,19.6131703 42.5420444,19.8239556 L42.5406519,19.8923407 L41.4188889,19.8923407 C41.4183867,20.0320682 41.4681327,20.1673198 41.5590519,20.2734222 C41.6402017,20.3604514 41.7547003,20.4086157 41.8736593,20.405763 C41.9594106,20.4081849 42.0435495,20.3821373 42.1129333,20.3316889 C42.1874362,20.2701905 42.2421182,20.1880593 42.2701185,20.0956" id="Fill-19" fill="#FEFEFE"></path>
                    <path d="M43.3757778,19.815437 C43.3662254,19.9504591 43.3916085,20.0856657 43.4494815,20.2080296 C43.5066891,20.3196193 43.6173699,20.3938457 43.7423225,20.4044191 C43.8672752,20.4149925 43.9888549,20.3604197 44.064,20.2600296 C44.1541952,20.13391 44.1973519,19.9801752 44.1859704,19.8255407 C44.1982653,19.670845 44.1570124,19.516624 44.0691259,19.3887259 C44.002087,19.3002104 43.897511,19.2481389 43.7864741,19.2479852 C43.6728228,19.2492191 43.5661483,19.3030104 43.4975852,19.3936593 C43.4087722,19.5156349 43.3656762,19.6649554 43.375837,19.8154963 L43.3757778,19.815437 Z M43.3785778,20.5820444 L43.1421037,20.5820444 L43.1421037,18.4970074 L43.397037,18.4970074 L43.397037,19.2408889 C43.4936749,19.1107218 43.6470251,19.034984 43.8091259,19.037363 C43.8997609,19.0369558 43.9894147,19.0561287 44.0719556,19.0935704 C44.1517142,19.1288567 44.2216767,19.1830409 44.2757926,19.251437 C44.3320938,19.3250119 44.3746022,19.4081766 44.4012593,19.4969037 C44.4319303,19.5963488 44.4471887,19.6999051 44.4465037,19.8039704 C44.460527,20.0210052 44.392241,20.2353531 44.2552593,20.4042815 C44.1413553,20.5394749 43.9733117,20.6171253 43.7965333,20.6162519 C43.6275942,20.6208157 43.4687614,20.5359828 43.3786074,20.393037 L43.3785778,20.5820444 Z" id="Fill-20" fill="#FEFEFE"></path>
                    <path d="M45.048163,20.5822222 L45.3530222,20.5822222 L45.3530222,19.0716444 L45.048163,19.0716444 L45.048163,20.5822222 Z M45.048163,18.791363 L45.3530222,18.791363 L45.3530222,18.4969481 L45.048163,18.4969481 L45.048163,18.791363 Z" id="Fill-21" fill="#FEFEFE"></path>
                    <path d="M46.5377778,20.3530815 L46.574637,20.5793333 C46.5113766,20.5934202 46.4468464,20.6010298 46.3820444,20.6020444 C46.3076781,20.6060511 46.2335359,20.5908043 46.1667852,20.5577778 C46.1190983,20.5321397 46.0812189,20.4914635 46.059037,20.4420741 C46.0321879,20.3436666 46.0217072,20.241513 46.0280148,20.1397037 L46.0280148,19.2707407 L45.8408889,19.2707407 L45.8408889,19.0716444 L46.0279259,19.0716444 L46.0279259,18.697363 L46.281437,18.5439407 L46.281437,19.0716444 L46.5377333,19.0716444 L46.5377333,19.2707407 L46.2814815,19.2707407 L46.2814815,20.1539852 C46.2784197,20.2013205 46.2829866,20.2488402 46.2950074,20.2947259 C46.3038565,20.3156465 46.3192339,20.3331443 46.3388444,20.3446074 C46.3656963,20.3583574 46.3957136,20.3647422 46.425837,20.3631111 C46.4633332,20.3622574 46.5007302,20.3588968 46.5377778,20.3530519" id="Fill-22" fill="#FEFEFE"></path>
                    <path d="M19.0478815,11.0154963 C19.0363418,10.4654789 18.8381489,9.93572647 18.485837,9.5132 C18.1221235,9.18462685 17.6377807,9.02276331 17.1495976,9.06663937 C16.6614146,9.11051543 16.213696,9.35614915 15.9144,9.74431111 C15.6634777,10.1226716 15.5197025,10.5619221 15.4983407,11.0154222 L19.0478815,11.0154963 Z M22.7124,12.748963 L15.4894815,12.748963 C15.5123421,13.2187958 15.6758164,13.6709269 15.9587111,14.0467407 C16.2944384,14.4501499 16.7972686,14.6764323 17.3218519,14.6601778 C17.6756418,14.6602764 18.0233838,14.5684246 18.3309778,14.3936296 C18.5750774,14.2351912 18.7880311,14.0333047 18.9592593,13.798 L22.5088,14.1268889 C22.0597762,14.9790558 21.3784119,15.6864995 20.5437037,16.1672 C19.508244,16.633687 18.3761425,16.8454722 17.2420741,16.7848444 C16.2352586,16.830678 15.2309944,16.6499393 14.3033333,16.2559556 C13.5625281,15.8783241 12.9464079,15.2949761 12.5288889,14.5758963 C12.0459294,13.7570961 11.8020927,12.8193385 11.825037,11.8689926 C11.7707207,10.5293389 12.283246,9.22877771 13.2368889,8.28634074 C14.301686,7.32771763 15.7056523,6.83477099 17.1360148,6.91731852 C18.2317779,6.86609494 19.3240011,7.07636072 20.3224296,7.53074074 C21.0858604,7.9241184 21.7077645,8.54557711 22.1016889,9.30872593 C22.5453155,10.2555909 22.754797,11.2952342 22.7124741,12.3400148 L22.7124,12.748963 Z" id="Fill-23" fill="#9A1B27"></path>
                </g>
            </g>
        </g>
    </g>
</svg>