<?xml version="1.0" encoding="UTF-8"?>
<svg width="60px" height="40px" viewBox="0 0 60 40" version="1.1" xmlns="http://www.w3.org/2000/svg" xmlns:xlink="http://www.w3.org/1999/xlink">
    <!-- Generator: Sketch 51.3 (57544) - http://www.bohemiancoding.com/sketch -->
    <title>elo</title>
    <desc>Created with Sketch.</desc>
    <defs></defs>
    <g id="elo" stroke="none" stroke-width="1" fill="none" fill-rule="evenodd">
        <g transform="translate(-1.000000, 0.000000)" fill-rule="nonzero">
            <rect id="Rectangle" fill="#000000" x="0" y="0" width="61.5384615" height="40"></rect>
            <g id="Group" transform="translate(7.692308, 12.307692)">
                <path d="M30.5164615,9.00675385 C30.0446353,7.05588053 28.4575862,5.57261568 26.4793045,5.23360459 C24.5010229,4.8945935 22.5106659,5.76481099 21.4162074,7.44727565 C20.3217489,9.12974031 20.3329527,11.3019912 21.4447077,12.9730769 L26.4173692,10.7992308 L28.4901538,9.88830769 L28.4901538,9.8924 L30.5164615,9.00675385 Z M22.7654615,10.4504923 C22.7581231,10.3633077 22.7540462,10.2761231 22.7540462,10.1873077 C22.7541199,8.99121372 23.4946086,7.92006981 24.6135553,7.49745998 C25.732502,7.07485015 26.9962104,7.3890381 27.7869692,8.28644615 L22.7654615,10.4504923 Z" id="Shape" fill="#FFFFFF"></path>
                <path d="M29.1418769,13.7832308 C27.4597718,15.4486952 24.8384283,15.7016716 22.8688769,14.3886154 L24.0511231,12.5920308 C25.185678,13.310088 26.6627536,13.167173 27.6386,12.2449231 L29.1418769,13.7832308 Z" id="Fill-3" fill="#FFFFFF"></path>
                <path d="M31.1886154,12.5390615 L31.1755692,3.03384615 L32.9771077,3.03384615 L32.9771077,12.2824308 C32.9608231,12.3748438 33.0150111,12.4651572 33.1042154,12.4942769 L34.6710462,13.1037231 L33.9654462,14.9394308 L32.1297385,14.1629385 C31.4339231,13.8679846 31.1894769,13.4418615 31.1886769,12.5390769" id="Fill-5" fill="#FFFFFF"></path>
                <g id="Group-9" transform="translate(0.000000, 1.538462)" fill="#289AD3">
                    <path d="M6.07592308,3.9666 C5.06068808,4.84610816 4.47713443,6.12293696 4.47650863,7.4661556 C4.47588284,8.80937424 5.0582465,10.0867462 6.07266154,10.9672 L3.85238462,13.3765077 C2.15496677,11.8635443 1.19011088,9.69371957 1.20367516,7.41993385 C1.21723945,5.14614813 2.20791396,2.9879891 3.92326154,1.49538462 C3.92326154,1.49538462 6.05798462,3.97884615 6.07266154,3.96335385 L6.07592308,3.9666 Z" id="Fill-7"></path>
                </g>
                <g id="Group-12" transform="translate(6.153846, 9.230769)" fill="#EC442D">
                    <path d="M10.7425231,1.2588 L10.7457846,1.2588 C10.3116707,3.5293797 8.90730994,5.49701279 6.90110138,6.6455398 C4.89489282,7.79406682 2.48705743,8.00886398 0.309230769,7.23358462 L1.36436923,4.13252308 C2.64638346,4.60214216 4.07005305,4.48422445 5.25733341,3.8100821 C6.44461377,3.13593974 7.27536396,1.97378924 7.52898462,0.632230769 L10.7425231,1.2588 Z" id="Fill-10"></path>
                </g>
                <path d="M16.8786923,7.41196923 L13.6830769,8.14769231 C13.4294563,6.80613384 12.5987061,5.64398333 11.4114257,4.96984098 C10.2241454,4.29569863 8.80047577,4.17778092 7.51846154,4.6474 L6.46333846,1.54636923 C8.62293647,0.778485294 11.0092366,0.983336375 13.006365,2.108053 C15.0034934,3.23276963 16.4157769,5.16715518 16.8787231,7.41196923" id="Fill-13" fill="#FDDA2E"></path>
                <path d="M37.7261538,7.91616923 C37.1013298,8.45749791 36.7422182,9.24336855 36.7419053,10.0700739 C36.7415924,10.8967793 37.1001089,11.6829216 37.7245231,12.2247231 L36.3581385,13.7076308 C35.3134485,12.776428 34.7195873,11.4409903 34.7278516,10.0415449 C34.736116,8.6420995 35.345708,7.31376878 36.4013231,6.39496923 C36.4013231,6.39496923 37.7155692,7.92349231 37.7245231,7.91453846 L37.7261538,7.91616923 Z" id="Fill-15" fill="#FFFFFF"></path>
                <path d="M44.3853692,10.9838154 L44.387,10.9838154 C44.1194739,12.3809865 43.2551361,13.5916573 42.020583,14.2984359 C40.7860299,15.0052145 39.3043841,15.1376136 37.9640769,14.6609231 L38.6142769,12.7527077 C39.403244,13.0415757 40.2793196,12.9689247 41.0099261,12.5540417 C41.7405327,12.1391588 42.2517611,11.424014 42.4078923,10.5984615 L44.3853692,10.9838154 Z" id="Fill-17" fill="#FFFFFF"></path>
                <path d="M44.3744462,9.08969231 L42.4075692,9.54270769 C42.2514751,8.71713289 41.7402549,8.00195843 41.0096378,7.58706355 C40.2790207,7.17216868 39.4029247,7.09952914 38.6139538,7.38843077 L37.9645692,5.48021538 C39.29357,5.00666409 40.762567,5.13224392 41.9919067,5.8244995 C43.2212463,6.51675509 44.0902928,7.70775503 44.3744462,9.08969231" id="Fill-19" fill="#FFFFFF"></path>
            </g>
        </g>
    </g>
</svg>