<?xml version="1.0" encoding="UTF-8"?>
<svg width="60px" height="40px" viewBox="0 0 60 40" version="1.1" xmlns="http://www.w3.org/2000/svg" xmlns:xlink="http://www.w3.org/1999/xlink">
    <!-- Generator: Sketch 51.3 (57544) - http://www.bohemiancoding.com/sketch -->
    <title>pmx-logo-hipercard</title>
    <desc>Created with Sketch.</desc>
    <defs>
        <polygon id="path-1" points="0 0.0269526223 53.6335075 0.0269526223 53.6335075 23.3729561 0 23.3729561"></polygon>
    </defs>
    <g id="pmx-logo-hipercard" stroke="none" stroke-width="1" fill="none" fill-rule="evenodd">
        <rect fill="#B32024" x="0" y="0" width="60" height="40"></rect>
        <g id="Group-6" transform="translate(3.000000, 8.000000)">
            <g id="Group-3" transform="translate(0.000000, 0.078331)">
                <mask id="mask-2" fill="white">
                    <use xlink:href="#path-1"></use>
                </mask>
                <g id="Clip-2"></g>
                <path d="M0.614869282,22.8729561 L43.2755621,22.8729561 C46.8214469,22.8729561 48.5483822,22.0520826 49.0522267,19.8968994 C49.2449086,19.0727079 49.4131797,18.2744091 49.7204754,16.759104 C49.8051174,16.3414464 49.8474099,16.132899 49.8897312,15.9250548 C49.8932009,15.9080095 49.8932009,15.9080095 49.8966705,15.8909642 C49.8187036,16.2739896 51.1429332,9.76940836 51.5103344,7.96383811 C52.0767311,5.18031713 52.5591987,2.8068353 53.0219251,0.526931566 L14.7234701,0.526931566 L9.18852657,0.526373646 C6.7513105,0.641605732 5.08221546,1.62031403 4.6023678,3.30893159 C4.45053999,3.84331683 4.34214766,4.34938828 4.16169311,5.30521197 C4.14718106,5.38213018 4.14718106,5.38213018 4.13266234,5.4591707 C4.02600647,6.02505884 3.97375981,6.29291123 3.90532601,6.61221814 C3.50941311,8.45989261 3.11288545,10.3929276 2.62838403,12.8187977 C2.50105997,13.4563018 2.37013338,14.1151996 2.20413656,14.9530961 C2.15067481,15.2229531 1.86400832,16.6711984 1.78235557,17.0831812 C1.29300362,19.5522294 0.952080244,21.2478426 0.614869282,22.8729561 Z" id="Fill-1" stroke="#FFFFFF" fill="#B32024" mask="url(#mask-2)"></path>
            </g>
            <path d="M37.0933254,14.0424005 C36.4924714,14.6306204 34.8058269,14.7977056 34.9783868,13.391642 C35.1216779,12.2239407 36.3931889,11.9756818 37.7711417,12.1443463 C37.6687007,12.7831024 37.5512041,13.5942078 37.0933254,14.0424005 Z M35.1952712,9.48709144 C35.1378916,9.8092595 35.0497692,10.10079 34.9783868,10.4089554 C35.6664157,10.2365007 37.8088333,9.70755547 38.0152946,10.6258397 C38.0838343,10.9309518 37.9656007,11.2551203 37.8796892,11.4935878 C35.9422589,11.3100784 34.3632143,11.6319306 33.9479754,13.0119891 C33.6698159,13.9363798 33.9791394,14.8460308 34.571676,15.099975 C35.7128458,15.5888072 37.1009058,15.0288033 37.5814205,14.2593901 C37.5315161,14.5257578 37.4842437,14.7947577 37.5000363,15.1270329 L38.5033897,15.1270329 C38.5139181,14.1662141 38.6537348,13.3884835 38.8016584,12.5238939 C38.9275777,11.7876452 39.1645713,11.0587662 39.1268797,10.4089554 C39.0407577,8.92077052 36.5753297,9.44729421 35.1952712,9.48709144 Z M45.2550216,14.5033324 C44.4700265,14.5201778 44.0797399,14.0343989 44.0618417,13.2289787 C44.0306777,11.818388 44.6494299,10.2512404 45.9056748,10.1106867 C46.4906309,10.0453055 46.9141872,10.181332 47.3429023,10.3276764 C46.9493519,11.9120905 47.0913796,14.4639563 45.2550216,14.5033324 Z M47.8579501,7.046721 C47.7580359,7.92289179 47.6244309,8.76547709 47.4513445,9.56837044 C44.5913133,8.66314135 42.8373925,10.767341 42.868767,13.3645841 C42.8749787,13.8667873 42.9614167,14.3648844 43.2755832,14.7202168 C43.8169518,15.3325467 45.3671488,15.4791016 46.1498276,14.9643697 C46.3013309,14.8647713 46.4560979,14.6834728 46.5565385,14.5576588 C46.6320269,14.4629035 46.7517345,14.2150657 46.7733176,14.2863428 C46.732257,14.5616596 46.6707713,14.8166567 46.6649807,15.1270329 L47.72245,15.1270329 C47.9262792,12.2035157 48.556402,9.70639735 49.0239669,7.046721 L47.8579501,7.046721 Z M18.0043412,14.0695637 C17.3806407,14.7302188 15.8469733,14.7201115 15.7267393,13.6085264 C15.6744133,13.1248532 15.8545537,12.6177017 15.9436237,12.1172884 C16.0337465,11.6107686 16.0986013,11.1247791 16.1876713,10.6800608 C16.8021068,9.92980932 18.6075114,9.83926535 18.790705,11.086877 C18.9496834,12.1700355 18.5209682,13.5224044 18.0043412,14.0695637 Z M18.9263104,9.48709144 C17.9394864,9.1163876 16.7367257,9.55889491 16.2153609,9.97981907 C16.2171507,9.998349 16.2029374,10.0008758 16.1876713,10.0022445 C16.1965151,9.99476935 16.2060959,9.98729421 16.2153609,9.97981907 C16.2152556,9.97823981 16.2151503,9.97687112 16.2147292,9.97518659 C16.223573,9.79409865 16.2872696,9.66807409 16.2961135,9.48709144 L15.2928653,9.48709144 C14.8747838,12.268581 14.3790029,14.9722659 13.855743,17.6486824 L15.0216545,17.6486824 C15.1904243,16.606374 15.3019197,15.5066859 15.5369128,14.5304956 C15.8031753,15.5572221 17.54183,15.3609733 18.275552,14.9643697 C19.7893207,14.145789 20.9569167,10.2498717 18.9263104,9.48709144 Z M24.4577044,11.4393667 L21.7191706,11.4393667 C21.8058191,10.8097703 22.3722453,10.1177407 23.2646298,10.0836288 C24.104583,10.0515173 24.7059633,10.3920047 24.4577044,11.4393667 Z M23.346014,9.37864925 C22.503534,9.443504 21.7913952,9.68597231 21.2852965,10.2192342 C20.6646492,10.8731511 20.1619197,12.3190119 20.3091063,13.6356896 C20.5192525,15.514161 22.8581295,15.4467795 24.7289152,14.9914276 C24.7607109,14.6617844 24.8405159,14.3799399 24.8915785,14.0695637 C24.1210072,14.3579357 22.7828516,14.7604352 21.9902761,14.2593901 C21.3918436,13.8810006 21.3883693,12.9228138 21.5835652,12.0901252 C22.8408629,12.0501174 24.147644,12.0578031 25.4068368,12.0901252 C25.4866418,11.4999049 25.7152127,10.856411 25.5151737,10.2734553 C25.2513328,9.50393683 24.3070435,9.30463482 23.346014,9.37864925 Z M13.0965424,9.48709144 C13.0649573,9.49161864 13.067063,9.5299419 13.0693792,9.56837044 C12.812487,11.4896923 12.4648403,13.320365 12.0932942,15.1270329 L13.2592057,15.1270329 C13.5393656,13.1927612 13.8603755,11.2993394 14.2624539,9.48709144 L13.0965424,9.48709144 Z M43.5196307,9.51414935 C42.4891141,8.9989963 41.6313679,9.86358588 41.29625,10.3817922 C41.391637,10.1158456 41.3971117,9.75977617 41.4859711,9.48709144 L40.455665,9.48709144 C40.1778214,11.4236795 39.8428087,13.3032037 39.4523116,15.1270329 L40.6453862,15.1270329 C40.6530719,14.3795188 40.7997321,13.8265689 40.9164917,13.0933734 C41.1659088,11.5281209 41.5318748,9.81147046 43.3569674,10.3276764 C43.4175056,10.0628879 43.4426684,9.76261883 43.5196307,9.51414935 Z M30.4230778,13.7983529 C30.3155832,13.5207198 30.287683,13.0622094 30.3145303,12.7137204 C30.3748579,11.9301993 30.6602819,10.9763291 31.1008941,10.5445607 C31.7089074,9.94854981 32.9092466,10.0472006 33.8666964,10.3817922 C33.8962811,10.0590977 33.9611359,9.77135738 34.0023018,9.46003353 C32.432101,9.20356249 30.9419158,9.36306726 30.151867,10.192071 C29.3785584,11.0035976 28.8715122,12.8689086 29.2298978,14.0424005 C29.6494533,15.4157208 31.530241,15.4903669 33.0532747,14.9643697 C33.1206563,14.6883159 33.1562422,14.3805717 33.215938,14.0966216 C32.3838811,14.5290216 30.7928341,14.753697 30.4230778,13.7983529 Z M29.7723194,9.48709144 C28.7385389,9.06953636 27.9257489,9.77514759 27.5489386,10.4361185 C27.6343236,10.1420612 27.6695937,9.7976783 27.7386598,9.48709144 L26.7082484,9.48709144 C26.4564098,11.4406301 26.0850743,13.2746719 25.7321634,15.1270329 L26.8981802,15.1270329 C27.0615804,14.0274502 27.1321205,12.5453718 27.4946122,11.4935878 C27.7843529,10.6531082 28.542606,9.93707389 29.636714,10.3276764 C29.6520854,10.0176159 29.7408395,9.78093819 29.7723194,9.48709144 Z M10.9816038,7.20938429 C10.815045,8.29012127 10.6274295,9.34980152 10.4392876,10.4089554 C9.23136791,10.4216947 7.99807487,10.4686512 6.83300565,10.3817922 C7.05304855,9.34569546 7.21086879,8.24716553 7.42954299,7.20938429 L6.12802613,7.20938429 C5.66204055,9.85274167 5.23827374,12.5381072 4.71806707,15.1270329 L6.04664184,15.1270329 C6.25510353,13.7988793 6.44998362,12.4572494 6.72445818,11.1953192 C7.85741587,11.167419 9.21504894,11.1187779 10.3036822,11.2224824 C10.0793227,12.5345276 9.80800663,13.7997216 9.59870267,15.1270329 L10.9273827,15.1270329 C11.3542028,12.4447206 11.8040799,9.78536011 12.3373418,7.20938429 L10.9816038,7.20938429 Z M14.2896171,8.40245896 C14.5220834,8.24242776 14.821405,7.51302242 14.4794436,7.20938429 C14.3711066,7.11326028 14.1898081,7.08536011 13.9371273,7.12810528 C13.7026606,7.16769195 13.5677922,7.24728641 13.4761954,7.37215286 C13.3287982,7.57271827 13.1939298,8.1776783 13.4219743,8.40245896 C13.6440175,8.62134373 14.1416935,8.50426828 14.2896171,8.40245896 Z" id="Fill-4" fill="#FEFEFE"></path>
        </g>
    </g>
</svg>