<?xml version="1.0" encoding="UTF-8"?>
<svg width="60px" height="40px" viewBox="0 0 60 40" version="1.1" xmlns="http://www.w3.org/2000/svg" xmlns:xlink="http://www.w3.org/1999/xlink">
    <!-- Generator: Sketch 51.3 (57544) - http://www.bohemiancoding.com/sketch -->
    <title>ideal</title>
    <desc>Created with Sketch.</desc>
    <defs></defs>
    <g id="ideal" stroke="none" stroke-width="1" fill="none" fill-rule="evenodd">
        <rect fill="#F3F6F9" x="0" y="0" width="60" height="40"></rect>
        <g transform="translate(15.000000, 6.000000)" fill-rule="nonzero" id="Page-1-2">
            <g transform="translate(0.740385, 0.538462)">
                <polygon id="Fill-1" fill="#000000" points="4.13807692 22.7028846 8.71096154 22.7028846 8.71096154 15.0405769 4.13807692 15.0405769"></polygon>
                <g id="Group-9">
                    <path d="M9.05631731,11.2091808 C9.04319399,12.6356375 7.87849132,13.7826158 6.45200106,13.7738648 C5.02551079,13.7651137 3.87496797,12.603932 3.87934673,11.1774216 C3.88372549,9.75091126 5.0413752,8.59681475 6.46789231,8.59682115 C7.90390316,8.60377877 9.06257708,9.7731667 9.05631731,11.2091808" id="Fill-2" fill="#000000"></path>
                    <g id="Group-6" fill="#000000">
                        <path d="M17.06215,2.57408846 C19.8395184,2.43695691 22.5693701,3.33257951 24.7256962,5.08838077 C26.7988808,6.94778269 27.8500115,9.76491923 27.8500115,13.4615385 C27.8500115,20.7876308 24.3212577,24.3489885 17.06215,24.3489885 L2.61886154,24.3489885 L2.61886154,2.57408846 L17.06215,2.57408846 Z M17.3725865,0.906338462 L0.966363462,0.906338462 L0.966363462,26.0167385 L17.3725865,26.0167385 L17.3725865,26.0119731 C20.4130051,26.1438013 23.4019587,25.1952411 25.8099692,23.334325 C28.2602115,21.2304885 29.5024692,17.9087596 29.5024692,13.4615385 C29.5363319,11.5282236 29.2068926,9.60573899 28.5312731,7.79400192 C27.9508131,6.28258055 27.0232456,4.92874342 25.8233904,3.84169423 C23.4539634,1.87432009 20.451276,0.833308849 17.3725462,0.911844231 L17.3725865,0.906338462 Z" id="Fill-4"></path>
                    </g>
                    <path d="M16.6107981,22.7119308 L10.8105712,22.7119712 L10.8105712,4.60441154 L16.3767154,4.60441154 C21.2139173,4.60441154 26.3627808,6.53104038 26.3627808,13.6819712 C26.3627808,21.2417423 21.2139173,22.7119712 16.3767154,22.7119712 L16.6107981,22.7119308 Z" id="Fill-7" fill="#CB1B69"></path>
                </g>
                <g id="Group-30" transform="translate(9.423077, 8.076923)" fill="#FFFFFF">
                    <path d="M1.25826346,1.94030577 L1.25826346,4.82018654 L1.91043462,4.82018654 C2.08749838,4.82614278 2.26467121,4.81220358 2.438625,4.77863077 C2.56942447,4.74866623 2.69066164,4.68648822 2.79131731,4.59774808 C2.90310199,4.48037073 2.98198293,4.33560942 3.02001538,4.17804423 C3.08687609,3.91809834 3.11667825,3.65001029 3.10853846,3.38172692 C3.11792233,3.12073835 3.08808227,2.85981936 3.02001538,2.60768846 C2.97365439,2.44890279 2.88846694,2.30416787 2.77214808,2.18655769 C2.65895923,2.08216875 2.51898067,2.01129861 2.36784423,1.98186154 C2.13058964,1.94624946 1.89058115,1.93235342 1.65080192,1.94034615 L1.25826346,1.94030577 Z M0.387773077,1.20173846 L1.98027308,1.20173846 C2.25654537,1.19252252 2.53280222,1.22050409 2.80161538,1.28493077 C3.05061645,1.35769845 3.2753592,1.49632795 3.45213077,1.68619231 C3.63887772,1.88893535 3.77946614,2.12974331 3.86421538,2.39203462 C3.96637429,2.72547563 4.01410216,3.07320724 4.00556154,3.42184231 C4.01213335,3.73607778 3.96740107,4.049281 3.87312692,4.34911346 C3.78192729,4.63854306 3.62357309,4.90230221 3.41099231,5.11885769 C3.23674033,5.28086159 3.02706484,5.39993599 2.79866731,5.46659615 C2.54761151,5.53557358 2.28765522,5.56663603 2.02741538,5.55875385 L0.3878,5.55875385 L0.387773077,1.20173846 Z" id="Fill-10"></path>
                    <path d="M1.98027308,1.32085962 C2.24533567,1.31193905 2.51040718,1.33831718 2.76851346,1.3993 C2.99727186,1.46648236 3.20378961,1.59386775 3.36648846,1.76814615 C3.54129063,1.95864743 3.67296968,2.18459415 3.75255192,2.43058846 C3.85019147,2.7516773 3.89574848,3.08633772 3.88749038,3.42184231 C3.89379465,3.72290391 3.85122391,4.02299491 3.76143654,4.310425 C3.67589022,4.58202232 3.52765802,4.82968929 3.32871538,5.03341731 C3.16727529,5.18234124 2.97350087,5.291801 2.76261731,5.35319615 C2.52314407,5.41810532 2.27538618,5.44723276 2.02738846,5.43963269 L0.505817308,5.43963269 L0.505817308,1.32085962 L1.98027308,1.32085962 Z M0.269742308,1.08259038 L0.269742308,5.67784808 L2.02738846,5.67784808 C2.29970079,5.68560974 2.57164616,5.6526743 2.83423269,5.58013077 C3.08012245,5.50771077 3.30576311,5.37901029 3.49326923,5.20423077 C3.71890871,4.97446556 3.88725851,4.6947849 3.98468269,4.38784231 C4.08301389,4.07550927 4.12991093,3.74926678 4.12353846,3.42188269 C4.1318683,3.06017113 4.08202204,2.69947091 3.97590577,2.353575 C3.88545289,2.07519896 3.7359988,1.81961772 3.53774615,1.60427885 C3.34655885,1.3993824 3.10381647,1.24963625 2.83491923,1.17070962 C2.5553678,1.10257218 2.26781776,1.07294759 1.98024615,1.08265769 L0.269742308,1.08259038 Z" id="Fill-12"></path>
                    <path d="M1.65073462,2.05944038 C1.88184468,2.05054193 2.11327876,2.0634775 2.34195769,2.098075 C2.4723076,2.12314391 2.59318112,2.18378567 2.69120385,2.27329038 C2.79295357,2.37747919 2.86740079,2.5051816 2.90793462,2.64505769 C2.97171349,2.88518351 2.99952697,3.13344065 2.99046731,3.38172692 C2.99833806,3.6382047 2.97027222,3.89452188 2.90708654,4.14321923 C2.87476279,4.27998433 2.80764568,4.40607584 2.71224423,4.50926538 C2.6258204,4.58475747 2.52200416,4.63760921 2.41011346,4.66307692 C2.2454554,4.69402426 2.07789192,4.70675923 1.91044808,4.70105192 L1.37636154,4.70105192 L1.37636154,2.05944038 L1.65073462,2.05944038 Z M1.14020577,1.82117115 L1.14020577,4.93930769 L1.91042115,4.93930769 C2.09727534,4.94560211 2.28423492,4.93044408 2.46763462,4.89413077 C2.61703316,4.85932194 2.7554124,4.78785846 2.87028269,4.68619038 C2.99861253,4.55479249 3.08927394,4.39132299 3.13278269,4.21288269 C3.20351624,3.94172168 3.23505812,3.6618294 3.22644808,3.38172692 C3.23636766,3.10798524 3.20449242,2.83433122 3.13192115,2.57019808 C3.07933426,2.3926801 2.9834497,2.23101601 2.85289038,2.09974423 C2.72408753,1.98061528 2.56479687,1.8995022 2.39269423,1.86540577 C2.1472704,1.82757419 1.89884722,1.81276939 1.65066731,1.82118462 L1.14020577,1.82117115 Z" id="Fill-14"></path>
                    <polygon id="Fill-16" points="4.99019231 5.55826923 4.99019231 1.20211538 8.18596154 1.20211538 8.18596154 1.93980769 5.86115385 1.93980769 5.86115385 2.905 8.02442308 2.905 8.02442308 3.64403846 5.86115385 3.64403846 5.86115385 4.82057692 8.26942308 4.82057692 8.26942308 5.55826923"></polygon>
                    <path d="M8.06829423,1.32085962 L8.06829423,1.82118462 L5.74298846,1.82118462 L5.74298846,3.02435 L7.90596154,3.02435 L7.90596154,3.524675 L5.74298846,3.524675 L5.74298846,4.93930769 L8.15096154,4.93930769 L8.15096154,5.43963269 L5.10865385,5.43963269 L5.10865385,1.32085962 L8.06829423,1.32085962 Z M4.872525,1.08259038 L4.872525,5.67784808 L8.38700962,5.67784808 L8.38700962,4.701025 L5.97905,4.701025 L5.97905,3.76289038 L8.14209038,3.76289038 L8.14209038,2.78606731 L5.97905,2.78606731 L5.97905,2.05941346 L8.30442308,2.05941346 L8.30442308,1.08261731 L4.872525,1.08259038 Z" id="Fill-18"></path>
                    <path d="M11.5391365,3.83142308 L10.9440558,2.21727692 L10.3609154,3.83142308 L11.5391365,3.83142308 Z M13.1439135,5.55872692 L12.1955615,5.55872692 L11.8188942,4.56999038 L10.0941481,4.56999038 L9.736825,5.55872692 L8.81201731,5.55872692 L10.4896615,1.20171154 L11.4174712,1.20171154 L13.1439135,5.55872692 Z" id="Fill-20"></path>
                    <path d="M11.3375635,1.32085962 C11.3927558,1.45999808 12.8517712,5.14234808 12.9695731,5.43963269 L12.2766538,5.43963269 L11.9,4.45089615 L10.0116154,4.45089615 C10.0116154,4.45089615 9.70226923,5.30683462 9.65434615,5.43963269 L8.98455385,5.43963269 L10.5704846,1.32085962 L11.3375635,1.32085962 Z M10.4088519,1.08259038 L8.63949423,5.67784808 L9.819425,5.67784808 L10.1767077,4.68911154 L11.7378423,4.68911154 C11.7873269,4.81915 12.1145231,5.67784808 12.1145231,5.67784808 L13.3182538,5.67784808 L11.4973788,1.08261731 L10.4088519,1.08259038 Z" id="Fill-22"></path>
                    <path d="M10.9451327,2.56191923 L11.3692654,3.71228846 L10.5296154,3.71228846 C10.6038288,3.50691923 10.8182308,2.91348077 10.9451865,2.56191923 L10.9451327,2.56191923 Z M10.1922558,3.95054423 L11.7090212,3.95054423 L10.942925,1.87262115 L10.1922558,3.95054423 Z" id="Fill-24"></path>
                    <polygon id="Fill-26" points="13.8721154 5.55826923 13.8721154 1.23711538 14.7430769 1.23711538 14.7430769 4.82057692 16.9117308 4.82057692 16.9117308 5.55826923"></polygon>
                    <path d="M14.6246154,1.3566 L14.6246154,4.93930769 L16.7935519,4.93930769 L16.7935519,5.43963269 L13.9901596,5.43963269 L13.9901596,1.3566 L14.6246154,1.3566 Z M13.754125,1.11833077 L13.754125,5.67786154 L17.0296135,5.67786154 L17.0296135,4.70103846 L14.8606904,4.70103846 L14.8606904,1.11834423 L13.754125,1.11833077 Z" id="Fill-28"></path>
                </g>
            </g>
        </g>
    </g>
</svg>