<?xml version="1.0" encoding="UTF-8"?>
<svg width="60px" height="40px" viewBox="0 0 60 40" version="1.1" xmlns="http://www.w3.org/2000/svg" xmlns:xlink="http://www.w3.org/1999/xlink">
    <!-- Generator: Sketch 51.3 (57544) - http://www.bohemiancoding.com/sketch -->
    <title>mastercard</title>
    <desc>Created with Sketch.</desc>
    <defs></defs>
    <g id="mastercard" stroke="none" stroke-width="1" fill="none" fill-rule="evenodd">
        <g transform="translate(-1.000000, 0.000000)" fill-rule="nonzero">
            <rect id="Rectangle-path" fill="#272622" x="0.384615385" y="0" width="61.5384615" height="40"></rect>
            <g id="Group" transform="translate(11.307692, 7.692308)">
                <path d="M27.3846154,0.461538462 C20.7692308,0.461538462 15.3846154,5.69230769 15.3846154,12.3076923 C15.3846154,18.9230769 20.7692308,24.1538462 27.2307692,24.1538462 C33.6923077,24.1538462 39.0769231,18.7692308 39.0769231,12.3076923 C39.2307692,5.69230769 33.8461538,0.461538462 27.3846154,0.461538462 C27.3846154,0.461538462 27.3846154,0.461538462 27.3846154,0.461538462" id="Shape" fill="#F79E1B"></path>
                <path d="M12.6153846,0.461538462 C6.15384615,0.461538462 0.769230769,5.69230769 0.769230769,12.3076923 C0.769230769,18.9230769 6.15384615,24.1538462 12.6153846,24.1538462 C19.0769231,24.1538462 24.6153846,18.9230769 24.6153846,12.3076923 C24.6153846,5.69230769 19.2307692,0.461538462 12.6153846,0.461538462 C12.6153846,0.461538462 12.6153846,0.461538462 12.6153846,0.461538462" id="Shape" fill="#EB001B"></path>
                <path d="M24.6153846,12.3076923 C24.6153846,8.61538462 22.9230769,5.23076923 20,2.92307692 C14.7692308,6.92307692 14,14.4615385 18,19.5384615 C18.6153846,20.3076923 19.2307692,20.9230769 20,21.5384615 C22.9230769,19.3846154 24.6153846,16 24.6153846,12.3076923" id="Shape" fill="#FF5F00"></path>
            </g>
        </g>
    </g>
</svg>