<?xml version="1.0" encoding="utf-8"?>
<!-- Generator: Adobe Illustrator 24.1.0, SVG Export Plug-In . SVG Version: 6.00 Build 0)  -->
<svg width="60px" height="40px" version="1.1" id="Layer_1" xmlns="http://www.w3.org/2000/svg" xmlns:xlink="http://www.w3.org/1999/xlink" x="0px" y="0px"
	 viewBox="0 0 60 40" style="enable-background:new 0 0 60 40;" xml:space="preserve">
<style type="text/css">
	.st0{fill:#009CDE;}
	.st1{fill:#003087;}
	.st2{fill:#012169;}
</style>
<path class="st0" d="M40.8,17.3h-2.2c-0.2,0-0.3,0.1-0.3,0.3l-0.9,5.6c0,0.1,0.1,0.2,0.2,0.2h1.1c0.1,0,0.2-0.1,0.2-0.2l0.3-1.6
	c0-0.1,0.2-0.3,0.3-0.3h0.7c1.4,0,2.3-0.7,2.5-2.1c0.1-0.6,0-1.1-0.3-1.4S41.5,17.3,40.8,17.3z M41.1,19.4c-0.1,0.8-0.7,0.8-1.3,0.8
	h-0.3l0.2-1.5c0-0.1,0.1-0.2,0.2-0.2H40c0.4,0,0.8,0,1,0.2C41.1,18.9,41.1,19.1,41.1,19.4z"/>
<path class="st1" d="M25.1,17.3h-2.2c-0.2,0-0.3,0.1-0.3,0.3l-0.9,5.6c0,0.1,0.1,0.2,0.2,0.2H23c0.2,0,0.3-0.1,0.3-0.3l0.2-1.5
	c0-0.1,0.2-0.3,0.3-0.3h0.7c1.4,0,2.3-0.7,2.5-2.1c0.1-0.6,0-1.1-0.3-1.4S25.9,17.3,25.1,17.3z M25.4,19.4c-0.1,0.8-0.7,0.8-1.3,0.8
	h-0.3l0.2-1.5c0-0.1,0.1-0.2,0.2-0.2h0.2c0.4,0,0.8,0,1,0.2L25.4,19.4z"/>
<path class="st1" d="M31.7,19.4h-1.1c-0.1,0-0.2,0.1-0.2,0.2v0.3l-0.1-0.1c-0.2-0.3-0.7-0.4-1.2-0.4c-1.2,0-2.2,0.9-2.4,2.1
	c-0.1,0.6,0,1.2,0.4,1.6c0.3,0.4,0.8,0.5,1.3,0.5c0.9,0,1.5-0.6,1.5-0.6v0.3c0,0.1,0.1,0.2,0.2,0.2H31c0.2,0,0.3-0.1,0.3-0.3
	l0.6-3.6C31.9,19.5,31.8,19.4,31.7,19.4z M30.2,21.4c-0.1,0.6-0.6,1-1.2,1c-0.3,0-0.5-0.1-0.7-0.3s-0.2-0.4-0.2-0.7
	c0.1-0.6,0.6-1,1.2-1c0.3,0,0.5,0.1,0.7,0.3C30.2,20.8,30.3,21.1,30.2,21.4z"/>
<path class="st0" d="M47.4,19.4h-1.1c-0.1,0-0.2,0.1-0.2,0.2v0.3L46,19.7c-0.2-0.3-0.7-0.4-1.2-0.4c-1.2,0-2.2,0.9-2.4,2.1
	c-0.1,0.6,0,1.2,0.4,1.6c0.3,0.4,0.8,0.5,1.3,0.5c0.9,0,1.5-0.6,1.5-0.6v0.3c0,0.1,0.1,0.2,0.2,0.2h0.9c0.2,0,0.3-0.1,0.3-0.3
	l0.6-3.6C47.6,19.5,47.5,19.4,47.4,19.4z M45.9,21.4c-0.1,0.6-0.6,1-1.2,1c-0.3,0-0.6-0.1-0.7-0.3c-0.2-0.2-0.2-0.4-0.2-0.7
	c0.1-0.6,0.6-1,1.2-1c0.3,0,0.5,0.1,0.7,0.3C45.9,20.8,46,21.1,45.9,21.4z"/>
<path class="st1" d="M37.3,19.4h-1.1c-0.1,0-0.2,0.1-0.3,0.1l-1.5,2.2l-0.6-2.1c0-0.1-0.2-0.2-0.3-0.2h-1c-0.1,0-0.2,0.1-0.2,0.2
	l1.2,3.4l-1.1,1.5c-0.1,0.1,0,0.3,0.1,0.3h1.1c0.1,0,0.2,0,0.3-0.1l3.5-5.1C37.5,19.5,37.4,19.4,37.3,19.4z"/>
<path class="st0" d="M48.6,17.5l-0.9,5.7c0,0.1,0.1,0.2,0.2,0.2h0.9c0.2,0,0.3-0.1,0.3-0.3l0.9-5.6c0-0.1-0.1-0.2-0.2-0.2h-1
	C48.7,17.3,48.6,17.4,48.6,17.5z"/>
<path class="st0" d="M17.4,17.6c0.1-0.8,0-1.3-0.4-1.7c-0.4-0.5-1.3-0.7-2.3-0.7h-3c-0.2,0-0.4,0.2-0.4,0.4l-1.3,8
	c0,0.2,0.1,0.3,0.3,0.3h1.9L12,24.6c0,0.1,0.1,0.3,0.2,0.3h1.6c0.2,0,0.3-0.1,0.4-0.3v-0.1l0.3-1.9v-0.1c0-0.2,0.2-0.3,0.4-0.3h0.2
	c1.5,0,2.7-0.6,3.1-2.4c0.1-0.7,0.1-1.4-0.3-1.8C17.7,17.8,17.6,17.7,17.4,17.6z"/>
<path class="st2" d="M17.4,17.6c0.1-0.8,0-1.3-0.4-1.7c-0.4-0.5-1.3-0.7-2.3-0.7h-3c-0.2,0-0.4,0.2-0.4,0.4l-1.3,8
	c0,0.2,0.1,0.3,0.3,0.3h1.9l0.5-3V21c0-0.2,0.2-0.4,0.4-0.4H14c1.7,0,3.1-0.7,3.5-2.7C17.4,17.7,17.4,17.7,17.4,17.6"/>
<path class="st1" d="M13.1,17.6c0-0.1,0.1-0.2,0.2-0.3h0.2h2.4c0.3,0,0.5,0,0.8,0.1h0.2h0.2h0.1c0.1,0,0.2,0.1,0.3,0.1
	c0.1-0.8,0-1.3-0.4-1.7c-0.4-0.5-1.3-0.7-2.3-0.7h-3c-0.2,0-0.4,0.2-0.4,0.4l-1.3,8c0,0.2,0.1,0.3,0.3,0.3h1.9l0.5-3L13.1,17.6z"/>
</svg>
