<?xml version="1.0" encoding="UTF-8"?>
<svg width="60px" height="40px" viewBox="0 0 60 40" version="1.1" xmlns="http://www.w3.org/2000/svg" xmlns:xlink="http://www.w3.org/1999/xlink">
    <!-- Generator: Sketch 51.3 (57544) - http://www.bohemiancoding.com/sketch -->
    <title>sofort</title>
    <desc>Created with Sketch.</desc>
    <defs></defs>
    <g id="sofort" stroke="none" stroke-width="1" fill="none" fill-rule="evenodd">
        <rect fill="#F3F6F9" x="0" y="0" width="60" height="40"></rect>
        <g id="Group-2" fill-rule="nonzero">
            <rect id="Rectangle-path" fill="#FA82A0" x="0" y="0" width="60" height="40"></rect>
            <path d="M21.5519559,26.8527281 C21.6623071,31.2753023 25.3308153,34.7744975 29.7536673,34.675905 L29.879852,34.675905 C36.0626867,34.675905 38.7124673,31.0166663 39.2171865,25.5909203 C39.4822303,24.3005095 39.1584389,22.9591084 38.3339132,21.9317012 C38.0766291,21.6153668 37.7215622,21.3934482 37.3244748,21.3007973 L36.3150365,21.0484475 L38.7124673,9.1874974 C38.9450008,7.84331787 38.1299062,6.53917675 36.8197556,6.15918223 C35.3641986,5.80414539 33.8804345,6.62845779 33.412906,8.05187431 L31.2678249,15.4965168 L29.5013175,8.17805901 C29.3693345,7.49631294 28.9573512,6.90122673 28.3656944,6.53771673 C27.7647903,6.16082784 27.0434182,6.02557365 26.346798,6.15918223 C25.6598913,6.3418435 25.0740578,6.7906379 24.7188673,7.4063048 C24.3636769,8.02197171 24.2683988,8.75377727 24.4541059,9.43986681 L25.4635443,17.767763 C24.7222294,16.8660595 23.4288337,16.6504991 22.4351507,17.2630438 L22.3089856,17.3892088 C21.2141992,18.2801417 20.9448545,19.8423396 21.6780817,21.0484475 C21.0487321,21.0569915 20.4525566,21.332145 20.0377394,21.8055165 L19.9115547,21.9317012 C18.939328,23.1870087 19.1649643,24.9921076 20.4162739,25.9694744 L21.5519559,26.8527281 Z M37.1982313,22.4364204 C37.3243964,22.4364204 37.4505811,22.5626051 37.5767658,22.6887898 C38.0754289,23.5225307 38.254758,24.5088445 38.081485,25.4647552 C37.7029505,30.5119472 35.3055196,33.5402819 29.8797735,33.5402819 C26.5002901,33.6161587 23.5396082,31.2898552 22.8138421,27.9883512 L23.6970958,28.8716245 C24.6846682,29.8179698 26.2425775,29.8179698 27.2301498,28.8716245 L27.3563345,28.7454398 C28.0976819,27.9621083 28.2504884,26.7905704 27.734869,25.8432897 C27.8610537,25.8432897 27.8610537,25.717105 27.9872384,25.717105 L28.1134035,25.5909399 C28.3657729,25.3385705 28.6181227,25.2123858 28.7443074,24.8338513 C29.1665329,25.0974109 29.6394022,25.2693615 30.1322999,25.3385705 L31.6464575,25.717105 C30.380594,26.4866346 29.6503003,27.8985266 29.7537458,29.3763241 C29.8028654,29.6591774 29.9933092,29.8972246 30.2584846,30.007228 C30.5413277,29.9581095 30.7793669,29.7676737 30.8893689,29.5025088 C30.8062838,28.259154 31.5132888,27.0976542 32.6558959,26.6003783 C33.1767546,26.3940209 33.7374384,26.3077588 34.2962382,26.3480089 L34.4224229,26.3480089 C35.1794918,26.4741936 35.3056765,25.4647552 34.6747726,25.2123858 L30.3846497,24.2029474 C29.873248,24.1227105 29.3933906,23.904591 28.9966768,23.5720435 C28.9966768,23.4458588 28.8704921,23.4458588 28.7443074,23.4458588 C28.2795099,22.9772652 28.1769528,22.2593417 28.4919576,21.6793514 C28.6224603,21.2101414 29.0190161,20.8631493 29.501396,20.7960781 C29.8260439,20.6698865 30.1861865,20.6698865 30.5108344,20.7960781 L30.7631842,20.7960781 L37.1983882,22.4364204 L37.1982313,22.4364204 Z M26.7253521,7.16862062 C27.122483,7.06709616 27.5442238,7.16081958 27.8609752,7.42099003 C28.2236328,7.63411402 28.4592135,8.01105199 28.4918595,8.43042842 L30.6368621,17.767763 L30.6368621,18.0201127 L30.7630272,18.1462974 L30.8892119,18.2724822 L31.2677464,18.2724822 C31.3939311,18.2724822 31.3939311,18.2724822 31.3939311,18.1462974 L31.5200962,18.0201127 L31.5200962,17.8939869 L34.2961401,8.43042842 C34.409071,8.00944336 34.6868493,7.65171047 35.0667417,7.43802008 C35.4466341,7.22432969 35.8965991,7.17270514 36.3150168,7.29480533 C36.6836297,7.39441568 36.9973613,7.63679296 37.1868063,7.96831707 C37.3762513,8.29984119 37.4257942,8.69318557 37.3244748,9.06133232 L34.927044,20.9222628 L30.6368621,19.9128244 L30.3844927,19.9128244 C29.8876603,19.78664 29.3671675,19.78664 28.8703351,19.9128244 C28.3054674,20.0027167 27.8030195,20.3224512 27.4823426,20.7960781 L26.8515172,19.5343292 L25.589729,9.31374097 L25.589729,9.1874974 C25.451062,8.33203887 25.9222685,7.49434214 26.7253521,7.16862062 Z M22.9399484,18.2724822 C23.823202,17.767763 24.5802906,18.0201127 25.3373596,19.1557358 L25.9682635,20.0390091 L25.9682635,20.1651742 L27.2300713,22.0578859 C27.0627148,22.8523291 27.2467163,23.6803396 27.7347905,24.3291321 C27.6086058,24.4552972 27.4824211,24.7076666 27.356256,24.8338513 L27.2300713,24.9600164 C26.600184,25.364176 25.763353,25.1968132 25.3373596,24.5814819 L22.9399484,20.9222628 C22.1828598,19.7866397 22.3090445,18.6510166 22.9399484,18.2724822 Z M20.7948084,22.5626051 C21.2417481,22.0560483 21.9904132,21.9490914 22.5613158,22.3102357 L24.3278428,24.960036 C24.7647842,25.6563326 25.5247664,26.083817 26.3467195,26.0956395 C26.8514422,26.625599 26.8514422,27.4583917 26.3467195,27.9883512 C25.8167666,28.4930713 24.9839803,28.4930713 24.4540275,27.9883512 L21.4256927,24.960036 C20.4163328,24.2029474 20.2901481,23.0673243 20.7948084,22.5626051 Z" id="Shape" fill="#FFFFFF"></path>
        </g>
    </g>
</svg>