<?xml version="1.0" encoding="UTF-8"?>
<svg width="60px" height="40px" viewBox="0 0 60 40" version="1.1" xmlns="http://www.w3.org/2000/svg" xmlns:xlink="http://www.w3.org/1999/xlink">
    <!-- Generator: Sketch 51.3 (57544) - http://www.bohemiancoding.com/sketch -->
    <title>union-pay</title>
    <desc>Created with Sketch.</desc>
    <defs></defs>
    <g id="union-pay" stroke="none" stroke-width="1" fill="none" fill-rule="evenodd">
        <rect fill="#F3F6F9" x="0" y="0" width="60" height="40"></rect>
        <g transform="translate(-1.000000, 0.000000)" fill-rule="nonzero">
            <rect id="Rectangle" fill="#FFFFFF" x="0.93844" y="0.281893333" width="60.3948933" height="35.99932" rx="2.81533"></rect>
            <path d="M43.5929524,0.281893333 C41.2818053,0.43732342 39.2981325,1.98226061 38.5838172,4.18314115 L31.6609768,36.7855989 C31.3672028,37.6842564 31.51743,38.6688156 32.0658823,39.4392677 C32.6143345,40.2097199 33.4960443,40.6748004 34.4423426,40.6927928 L60.0318558,40.6927928 C61.0732158,40.6913561 62.0712478,40.2763014 62.8059124,39.5391372 C63.5405769,38.801973 63.9515468,37.803232 63.948214,36.7631098 L63.9303269,2.97595423 C63.7559127,1.60620596 62.7043089,0.511974917 61.3412169,0.281893333" id="path22" fill="#01798A"></path>
            <rect id="Rectangle-19" fill="#DC1F2B" x="0" y="0.281893333" width="28.4099297" height="40.4108995" rx="2.81533"></rect>
            <path d="M39.5538237,4.18678955 C40.2178513,2.01752767 42.1397082,0.472439625 44.4032709,0.288048259 L38.7262454,0.28409351 L25.3413792,0.281893333 C23.0615724,0.450972703 21.1202635,2.00229095 20.4548192,4.18678955 L13.700492,36.7859888 C13.4044124,37.6733939 13.5442034,38.6482652 14.077762,39.4169866 C14.6113206,40.1857079 15.476288,40.6584362 16.4121494,40.6927928 L35.5142907,40.6927928 C34.5783581,40.6584613 33.7132874,40.1858041 33.1795368,39.4171302 C32.6457862,38.6484563 32.5057127,37.6735685 32.8014901,36.7859888 L39.5538237,4.18678955 Z" id="path20" fill="#1A4580"></path>
            <g id="Group" transform="translate(9.000000, 10.000000)" fill="#FFFFFF">
                <path d="M17.5043333,12.3866667 L17.7415467,12.3866667 C17.9174827,12.4093888 18.0893968,12.3221093 18.17488,12.1666667 L18.7912933,11.23552 L20.44196,11.23552 L20.0977333,11.84796 L22.0769467,11.84796 L21.82588,12.7863333 L19.4708667,12.7863333 C19.2738221,13.1565652 18.8833812,13.3825193 18.4642,13.3689067 L17.2375333,13.3689067 L17.50432,12.3866667 L17.5043333,12.3866667 Z M17.2333333,13.7315067 L21.56952,13.7315067 L21.2931067,14.75084 L19.54924,14.75084 L19.2831467,15.7347333 L20.98008,15.7347333 L20.70368,16.75396 L19.0067467,16.75396 L18.6125467,18.20784 C18.5149333,18.4508533 18.64328,18.5601333 18.99548,18.5353333 L20.3784667,18.5353333 L20.1222267,19.4824933 L17.4670267,19.4824933 C16.9637111,19.4824933 16.7910133,19.1914444 16.9489333,18.6093467 L17.4529333,16.75396 L16.3682267,16.75396 L16.64376,15.7347333 L17.7286267,15.7347333 L17.99448,14.75084 L16.9576,14.75084 L17.2333067,13.7315067 L17.2333333,13.7315067 Z M24.1543467,11.22852 L24.0860533,11.8252267 C24.5410209,11.4818215 25.0802872,11.2676637 25.6468933,11.2053733 L28.392,11.2053733 L27.3422133,15.0410533 C27.2551644,15.47956 26.8819289,15.6984133 26.2225067,15.6976133 L23.1111067,15.6976133 L22.3823067,18.3909467 C22.3403067,18.53528 22.39964,18.6092933 22.55664,18.6092933 L23.1688267,18.6092933 L22.9438,19.4452933 L21.3874267,19.4452933 C20.7900311,19.4452933 20.5409156,19.26344 20.64008,18.8997333 L22.6995333,11.2284267 L24.1543333,11.2284267 L24.1543467,11.22852 Z M26.4789333,12.3127733 L24.0288,12.3127867 L23.7357333,13.34776 C24.0623262,13.1434633 24.4404389,13.0366126 24.8256533,13.03976 C25.5056533,13.0290133 26.28184,13.03976 26.28184,13.03976 L26.4789333,12.3127733 Z M25.5912933,14.71372 C25.7724267,14.73852 25.8738,14.6661733 25.88596,14.4954133 L26.0358933,13.9498267 L23.58204,13.9498267 L23.3762533,14.71372 L25.5912933,14.71372 Z M23.93612,15.9529733 L25.3505333,15.9529733 L25.3242533,16.57076 L25.7008533,16.57076 C25.8911467,16.57076 25.98548,16.5092667 25.98548,16.38788 L26.0969333,15.9882133 L27.27248,15.9882133 L27.1155067,16.57076 C26.9951059,17.0480302 26.5496428,17.3701426 26.05868,17.3349467 L25.30524,17.3349467 L25.30172,18.3909467 C25.28788,18.56008 25.4394667,18.6462933 25.7515333,18.6462933 L26.4596933,18.6462933 L26.2311467,19.48244 L24.5325733,19.48244 C24.05648,19.5052933 23.8230133,19.27632 23.8279333,18.7906133 L23.9361067,15.95292 L23.93612,15.9529733 Z" id="path24"></path>
                <path d="M6.79649333,6.11829333 C6.64846852,6.99160761 6.17439633,7.77615065 5.47010667,8.31333333 C4.69560779,8.84989353 3.76676546,9.11818912 2.82545333,9.07724 C2.00233109,9.14887161 1.18807885,8.86359732 0.58964,8.29392 C0.25288396,7.90176088 0.0766094768,7.39691404 0.09608,6.88037333 C0.0983225094,6.62416292 0.126393376,6.36883149 0.179866667,6.11825333 L1.32996,0.52064 L3.06697333,0.52064 L1.93253333,6.05492 C1.90007248,6.19397418 1.88428578,6.33639913 1.88550667,6.47918667 C1.87319279,6.72863212 1.9470429,6.97472386 2.09466667,7.17617333 C2.34477077,7.46488044 2.71891522,7.61501794 3.09921333,7.57928 C3.57047989,7.5994905 4.03466475,7.45923993 4.41589333,7.18145333 C4.76883848,6.90069396 5.00575248,6.4995544 5.08122667,6.05492 L6.21924,0.52068 L7.94744,0.52064 L6.79649333,6.11829333" id="path28"></path>
                <path d="M14.0913867,3.91616 L15.4517733,3.91616 L14.38616,8.91186667 L13.0284533,8.91186667 L14.0913867,3.91616 M14.5196133,2.09616 L15.8921067,2.09616 L15.6357333,3.30876 L14.2633333,3.30876 L14.5196133,2.09616" id="path34"></path>
                <path d="M16.656,8.53162667 C16.2891947,8.16292976 16.0942528,7.65703403 16.1188,7.13753333 C16.1193147,7.02400074 16.1257367,6.91057183 16.13804,6.79770667 C16.15116,6.67096 16.1677467,6.54773333 16.1912133,6.43338667 C16.3131996,5.69316048 16.6768252,5.01414797 17.2253333,4.50233333 C17.7474547,4.0273397 18.4319857,3.77088757 19.13768,3.78589333 C19.67114,3.75717937 20.1938308,3.94361074 20.5887067,4.30344 C20.9552858,4.67852911 21.1483929,5.18977203 21.1213333,5.71354667 C21.1201955,5.8293794 21.1132266,5.94508141 21.1004533,6.06021333 C21.0847333,6.18872 21.0657867,6.31194667 21.0436667,6.43342667 C20.9238879,7.16536116 20.5612141,7.83566905 20.0140667,8.33637333 C19.4906427,8.80381317 18.8094288,9.05536601 18.1078267,9.04029333 C17.5755819,9.06991398 17.0533576,8.88696524 16.65596,8.53166667 M19.2484267,7.54233333 C19.5243587,7.19932334 19.7026898,6.78825331 19.76464,6.35241333 C19.78036,6.26974667 19.7942,6.18341333 19.80288,6.09718667 C19.8109593,6.01880556 19.8150313,5.94006305 19.81508,5.86126667 C19.8316699,5.60135535 19.7480393,5.34496666 19.5813867,5.14482667 C19.4089775,4.96734038 19.1675773,4.87412095 18.9206267,4.88966667 C18.5681875,4.87922939 18.2294098,5.02630069 17.9963733,5.29090667 C17.7180062,5.64121152 17.5376764,6.05916669 17.4738267,6.50202667 C17.45904,6.58469333 17.44684,6.66753333 17.4355733,6.74848 C17.4274691,6.82504624 17.4242581,6.90205154 17.42596,6.97902667 C17.4092734,7.23678771 17.4930294,7.49099935 17.6596667,7.68836 C17.8344174,7.86353556 18.076331,7.95466817 18.3232267,7.93833333 C18.6749986,7.94949939 19.0136966,7.804507 19.2484267,7.54226667" id="path18"></path>
                <path d="M29.94764,12.4289067 L30.27564,11.2636667 L31.9341333,11.2636667 L31.86256,11.69128 C32.3179914,11.4600923 32.812248,11.3151171 33.3204,11.2636667 L35.3711733,11.2636667 L35.0452533,12.4289067 L34.7225867,12.4289067 L33.1755867,17.92456 L33.4982533,17.92456 L33.1913467,19.0159467 L32.86868,19.0159467 L32.7344667,19.48944 L31.1283333,19.48944 L31.26232,19.0159467 L28.0937333,19.0159467 L28.40252,17.92456 L28.72,17.92456 L30.2684,12.4289067 L29.94764,12.4289067 Z M31.7369733,12.4289067 L31.3148533,13.91624 C31.7497307,13.7511907 32.200306,13.6309196 32.6595867,13.5572933 C32.7970933,13.0379067 32.9768267,12.4289067 32.9768267,12.4289067 L31.7369733,12.4289067 Z M31.1194,14.61344 L30.6958667,16.1712933 C31.1206665,15.958403 31.5759998,15.8128942 32.0455333,15.7399867 C32.2042,15.1379067 32.363,14.61344 32.363,14.61344 L31.1194,14.61344 Z M31.4298267,17.92456 L31.7472933,16.79448 L30.5093333,16.79448 L30.1902133,17.92456 L31.4298267,17.92456 Z M35.44104,11.19152 L37.00024,11.19152 L37.0664,11.7722267 C37.05608,11.9200533 37.1431333,11.9906533 37.3280267,11.9906533 L37.6035067,11.9906533 L37.3247467,12.97456 L36.17876,12.97456 C35.7411467,12.9974133 35.5160933,12.8285733 35.49524,12.4640533 L35.44104,11.19152 Z M34.9841867,13.3020533 L40.0346667,13.3020133 L39.73832,14.35828 L38.13032,14.35828 L37.8546267,15.34032 L39.4609867,15.34032 L39.1627467,16.3948267 L37.3736,16.3948267 L36.96884,17.0128267 L37.8445333,17.0128267 L38.0468,18.25016 C38.07096,18.3733867 38.1791333,18.43324 38.3640267,18.43324 L38.6360267,18.43324 L38.3502267,19.45228 L37.38756,19.45228 C36.8887067,19.47708 36.63084,19.3080667 36.60972,18.9437467 L36.3776533,17.8136667 L35.5808133,19.0159067 C35.4199573,19.3408851 35.0727044,19.5302211 34.7124,19.4894 L33.2421333,19.4894 L33.52816,18.4700667 L33.9868267,18.4700667 C34.1801625,18.4666045 34.3604979,18.3720052 34.47324,18.2149067 L35.7203733,16.3947867 L34.1123733,16.3947867 L34.4103733,15.34028 L36.1544,15.34028 L36.4317333,14.35824 L34.686,14.35824 L34.9842267,13.3020133 L34.9841867,13.3020533 Z" id="path26"></path>
                <path d="M8.39654667,3.9144 L9.62337333,3.9144 L9.48305333,4.63609333 L9.65913333,4.43016 C10.026041,4.01473469 10.5559558,3.78009132 11.11016,3.78765333 C11.5359349,3.74936136 11.9539692,3.91918453 12.2324133,4.24356 C12.4756503,4.61834378 12.5428702,5.08073926 12.4164133,5.50926667 L11.74052,8.91361333 L10.4796667,8.91361333 L11.0900267,5.82789333 C11.1611481,5.59315479 11.1427988,5.34039202 11.03852,5.11838667 C10.9109345,4.95108803 10.7041743,4.86403028 10.4953467,4.88968 C10.1930825,4.88169618 9.89941771,4.99078151 9.67566667,5.19416 C9.44021605,5.42168282 9.28480128,5.71935336 9.23269333,6.0426 L8.67026667,8.91361333 L7.4068,8.91361333 L8.39654667,3.9144" id="path30"></path>
                <path d="M22.46584,3.9144 L23.69372,3.9144 L23.5543467,4.63609333 L23.7284533,4.43016 C24.0957035,4.01506353 24.62553,3.78049806 25.17972,3.78765333 C25.6052264,3.74893488 26.0231039,3.91886798 26.3008267,4.24356 C26.5444956,4.61820079 26.6114913,5.08089762 26.4840933,5.50926667 L25.8109067,8.91361333 L24.54824,8.91361333 L25.1587733,5.82789333 C25.2294556,5.5931793 25.211424,5.34067519 25.1081067,5.11838667 C24.9802237,4.95200428 24.7742634,4.86513619 24.5658533,4.88968 C24.2631202,4.8821424 23.9690505,4.99113703 23.74436,5.19416 C23.5084791,5.42111305 23.3535234,5.71915129 23.30324,6.0426 L22.7382133,8.91361333 L21.4763067,8.91361333 L22.4658,3.9144" id="path32"></path>
                <path d="M28.5350933,0.816253333 L32.0997867,0.816253333 C32.6647985,0.779291666 33.2246043,0.943947911 33.6796267,1.28093333 C34.0552959,1.6222741 34.2555672,2.11578581 34.224,2.62238667 L34.224,2.63990667 C34.224,2.75074667 34.21672,2.8758 34.2064,3.01126667 C34.1888,3.14508 34.16604,3.2806 34.1367067,3.42146667 C34.003361,4.1492705 33.6196326,4.80750433 33.052,5.28213333 C32.4896205,5.74982307 31.7778358,5.99972928 31.04652,5.98625333 L29.13484,5.98625333 L28.5437733,8.91361333 L26.8886133,8.91361333 L28.5350933,0.81628 M29.4260267,4.57812 L31.0115067,4.57812 C31.3616753,4.59730972 31.7077738,4.49535125 31.9916133,4.28938667 C32.2495068,4.0565367 32.419435,3.74204668 32.4728667,3.39872 C32.4867067,3.3246 32.4953867,3.2578 32.5059467,3.19622667 C32.51128,3.1382 32.5181467,3.07994667 32.5181467,3.02381333 C32.5375452,2.77592991 32.4215201,2.53690416 32.21476,2.3988 C31.9192884,2.24607693 31.5872022,2.17842906 31.2555333,2.2034 L29.90916,2.2034 L29.4260267,4.57806667" id="path38"></path>
                <path d="M41.6321333,9.88010667 C41.3056469,10.6387405 40.8620176,11.34138 40.3174667,11.9623333 C39.7614993,12.6322782 38.9122527,12.9868642 38.04496,12.9111733 L38.1653333,12.0540133 C39.3422933,11.6878667 39.97888,10.03832 40.34164,9.30790667 L39.9091867,3.92846667 L40.8196,3.91616 L41.58336,3.91616 L41.66548,7.29064 L43.09704,3.91616 L44.5463733,3.91616 L41.63212,9.88016" id="path40"></path>
                <path d="M37.5793867,4.32276 L37.0035733,4.72242667 C36.4187862,4.13021081 35.5037693,4.0172711 34.7925333,4.44952 C33.34832,5.12542667 32.1415467,10.30952 36.1178,8.60204 L36.3444667,8.87309333 L37.9088267,8.91361333 L38.93608,4.20304 L37.5793867,4.32276 M36.6898533,6.89808 C36.43856,7.64625333 35.8772933,8.14084 35.4378533,8.00004 C34.99836,7.86270667 34.8413867,7.14093333 35.0959733,6.39110667 C35.34704,5.64118667 35.9120533,5.14834667 36.3479733,5.28917333 C36.7874533,5.42650667 36.94608,6.14816 36.68984,6.89808" id="path42"></path>
            </g>
        </g>
    </g>
</svg>