<?xml version="1.0" encoding="UTF-8"?>
<svg width="60px" height="40px" viewBox="0 0 60 40" version="1.1" xmlns="http://www.w3.org/2000/svg" xmlns:xlink="http://www.w3.org/1999/xlink">
    <!-- Generator: Sketch 51.3 (57544) - http://www.bohemiancoding.com/sketch -->
    <title>visa</title>
    <desc>Created with Sketch.</desc>
    <defs></defs>
    <g id="visa" stroke="none" stroke-width="1" fill="none" fill-rule="evenodd">
        <rect fill="#29327F" x="0" y="0" width="60" height="40"></rect>
        <g transform="translate(6.000000, 12.000000)" fill-rule="nonzero" id="Page-1">
            <g transform="translate(0.214286, 0.500000)">
                <g id="visa-65x41">
                    <g id="Page-1-2">
                        <path d="M46.5745236,14.5431486 L43.2056214,14.5431486 C43.0904707,14.0309143 42.9544464,13.5347936 42.873235,13.0302336 C42.8763566,12.8566206 42.8009085,12.6908829 42.6679256,12.5792282 C42.5349428,12.4675735 42.3586492,12.4219446 42.1881957,12.4550629 C40.9383679,12.4827 39.6864393,12.4391071 38.4379593,12.487715 C38.154013,12.5454588 37.9099072,12.7253223 37.7706364,12.9794157 C37.5351638,13.4922892 37.3307701,14.0188689 37.1585636,14.5562993 L33.3446743,14.5562993 C33.4496129,14.2712943 33.5285779,14.0247093 33.6297643,13.7871343 C35.3289386,9.79456286 37.04555,5.80933786 38.72141,1.80736786 C38.9986923,0.921953266 39.8617217,0.354766675 40.7844814,0.451508571 C41.70491,0.484015 42.6276214,0.458308571 43.5894814,0.458308571 C44.589045,5.17521357 45.5762957,9.83348071 46.5745114,14.5431486" id="Path" fill="#FFFFFF"></path>
                        <path d="M0.621714286,0.558147143 C0.830946404,0.505368208 1.04416524,0.469888593 1.25921429,0.452067143 C3.0855,0.444117619 4.91186262,0.443676429 6.73830214,0.450743571 C7.216396,0.379441289 7.70246729,0.512069484 8.07809017,0.816314787 C8.45371306,1.12056009 8.68439938,1.56848793 8.713945,2.05096571 C9.20140786,4.51402286 9.66396571,6.98210714 10.1376221,9.44783571 C10.1593821,9.56129857 10.1910507,9.67284286 10.2595243,9.95710714 C10.41981,9.63724 10.5228543,9.46319643 10.5977636,9.27792071 C11.6964129,6.55735 12.8022629,3.83942643 13.87659,1.10942071 C14.0630557,0.635752143 14.2706864,0.405135 14.8346614,0.435261429 C15.8514921,0.489782857 16.8734471,0.45078 18.0154586,0.45078 C17.446165,1.80515786 16.9196629,3.07058929 16.3829486,4.33189214 C15.0211271,7.53146214 13.6393429,10.7229086 12.3057414,13.9337107 C12.1830686,14.3936045 11.7272246,14.6817128 11.259185,14.5951686 C10.2371086,14.55024 9.21157143,14.5823093 8.10511429,14.5823093 C7.68715714,13.0083764 7.26934571,11.4478979 6.85844357,9.88578 C6.30117143,7.76608643 5.71805929,5.65214857 5.20957714,3.521065 C5.06807727,2.69817156 4.47640693,2.0244816 3.67866643,1.77793357 C2.66799214,1.43605143 1.65176857,1.11007643 0.637949286,0.777252857 L0.621714286,0.558147143 Z" id="Fill-3" fill="#FFFFFF"></path>
                        <path d="M34.1034207,0.874237857 C33.9001493,1.81895214 33.7046857,2.72769929 33.5045593,3.65790286 C32.6826283,3.43852779 31.8467335,3.27528734 31.0026571,3.16931071 C30.3109097,3.11731882 29.615971,3.21171288 28.963155,3.44633786 C28.0475107,3.80063 27.9877557,4.641195 28.7751836,5.22526643 C29.250129,5.54356132 29.7432962,5.83378612 30.2521557,6.09445214 C30.61938,6.30469357 30.9912429,6.507115 31.3596693,6.71528 C32.6390145,7.41340165 33.4349822,8.75445244 33.435043,10.211881 C33.4351037,11.6693096 32.6392478,13.0104267 31.3599607,13.708655 C29.5201184,14.7046413 27.3960631,15.0447368 25.337225,14.6729921 C24.6685779,14.5880011 24.0096054,14.4391791 23.3693293,14.2285636 C23.1435924,14.1094872 22.9953652,13.8822677 22.9773457,13.6276864 C23.1097029,12.780965 23.32774,11.9472364 23.4997921,11.1766021 C24.6469279,11.4126957 25.7442293,11.7089207 26.8616393,11.8398207 C27.4816413,11.8952076 28.1060742,11.8071965 28.6866136,11.5825986 C29.1582667,11.4862821 29.5171015,11.1017069 29.5805647,10.6245215 C29.6440279,10.1473361 29.3981814,9.68234144 28.9680971,9.46609857 C28.5961527,9.2174813 28.2101248,8.990609 27.8119514,8.78662071 C27.1728583,8.45368882 26.5534515,8.08425921 25.9568021,7.68016357 C25.0573451,7.05819327 24.4866448,6.06349504 24.4036407,4.97309131 C24.3206366,3.88268758 24.734196,2.81306518 25.5291429,2.06211286 C26.3977826,1.19078737 27.5153806,0.610452498 28.72779,0.401152143 C30.5276623,0.0347170678 32.395227,0.199072889 34.1034329,0.874237857" id="Fill-5" fill="#FFFFFF"></path>
                        <path d="M20.2834286,14.5467307 L16.5953029,14.5467307 C17.61948,9.840305 18.6336029,5.17997357 19.6534329,0.493498571 L23.3340057,0.493498571 C22.3110186,5.20553429 21.3000771,9.86292714 20.28338,14.5467307" id="Fill-8" fill="#FFFFFF"></path>
                        <path d="M41.0620671,4.53075571 C41.4108221,6.18582714 41.7597229,7.84098357 42.1213857,9.55704857 L39.0120493,9.55704857 C39.6498043,7.82562286 40.2642814,6.15727929 40.8786129,4.48909357 L41.0620671,4.53075571 Z" id="Fill-10" fill="#29327F"></path>
                    </g>
                </g>
            </g>
        </g>
    </g>
</svg>
